<svg xmlns="http://www.w3.org/2000/svg" xmlns:xlink="http://www.w3.org/1999/xlink" width="500" zoomAndPan="magnify" viewBox="0 0 375 374.999991" height="500" preserveAspectRatio="xMidYMid meet" version="1.0"><defs><clipPath id="46bbc451b7"><path d="M 15.339844 77 L 363.300781 77 L 363.300781 362.941406 L 15.339844 362.941406 Z M 15.339844 77 " clip-rule="nonzero"/></clipPath><clipPath id="95fcd51f41"><path d="M 133.109375 64.089844 L 135 64.089844 L 135 65.132812 L 133.109375 65.132812 Z M 133.109375 64.089844 " clip-rule="nonzero"/></clipPath><clipPath id="3ee0c2f6b5"><path d="M 134.367188 65.078125 C 134.15625 65.007812 133.949219 64.917969 133.738281 64.816406 L 133.792969 64.765625 L 134.367188 65.078125 " clip-rule="nonzero"/></clipPath><clipPath id="5ee212cf84"><path d="M 68.492188 140 L 69.535156 140 L 69.535156 141.144531 L 68.492188 141.144531 Z M 68.492188 140 " clip-rule="nonzero"/></clipPath><clipPath id="932c3dda8f"><path d="M 69.460938 140.050781 L 68.808594 141.09375 L 68.808594 141.039062 Z M 69.460938 140.050781 " clip-rule="nonzero"/></clipPath><clipPath id="4676bb62ad"><path d="M 68.519531 140.992188 L 69.398438 141.296875 L 69.753906 140.148438 L 68.875 139.847656 Z M 68.519531 140.992188 " clip-rule="nonzero"/></clipPath><linearGradient x1="0.505597" gradientTransform="matrix(15.346444, -49.799815, 49.33332, 16.988169, 61.193736, 166.321026)" y1="0" x2="0.528572" gradientUnits="userSpaceOnUse" y2="0" id="6bf46abde1"><stop stop-opacity="1" stop-color="rgb(65.499878%, 18.798828%, 12.5%)" offset="0"/><stop stop-opacity="1" stop-color="rgb(65.499878%, 18.798828%, 12.5%)" offset="0.5"/><stop stop-opacity="1" stop-color="rgb(65.499878%, 18.606567%, 12.5%)" offset="1"/></linearGradient><clipPath id="9cfeb8f94d"><path d="M 194.394531 38.835938 L 253.175781 38.835938 L 253.175781 156.453125 L 194.394531 156.453125 Z M 194.394531 38.835938 " clip-rule="nonzero"/></clipPath><clipPath id="ed0e8fb248"><path d="M 194.394531 112.195312 L 194.394531 38.835938 C 194.402344 39.289062 194.921875 39.832031 195.957031 40.449219 L 205.757812 46.023438 L 205.703125 46.074219 L 207.894531 47.375 L 207.941406 47.375 L 220.660156 54.714844 C 222.777344 55.898438 224.898438 55.878906 227.015625 54.664062 L 251.5625 40.503906 C 252.496094 40.019531 253.039062 39.496094 253.175781 38.941406 L 253.125 121.800781 L 253.125 134.6875 C 253.152344 134.753906 253.167969 134.824219 253.175781 134.894531 L 253.175781 135.078125 C 253.164062 135.132812 253.144531 135.195312 253.125 135.261719 L 253.175781 135.207031 L 253.175781 136.148438 L 253.125 138.957031 C 253.148438 139.03125 253.167969 139.109375 253.175781 139.1875 L 253.175781 139.449219 C 253.101562 139.980469 252.578125 140.527344 251.613281 141.09375 L 227.070312 155.199219 C 224.953125 156.453125 222.832031 156.429688 220.710938 155.148438 L 208.882812 148.40625 L 208.882812 121.828125 L 208.9375 121.777344 L 208.9375 121.722656 C 208.9375 121.617188 208.914062 121.53125 208.882812 121.460938 C 208.882812 121.394531 208.882812 121.339844 208.882812 121.308594 C 208.777344 120.789062 208.238281 120.246094 207.265625 119.695312 L 200.125 115.527344 L 200.179688 115.527344 L 194.394531 112.195312 " clip-rule="nonzero"/></clipPath><linearGradient x1="0.00436313" gradientTransform="matrix(59.405589, 0, 0, 59.353675, 194.1351, 97.480138)" y1="0" x2="0.993878" gradientUnits="userSpaceOnUse" y2="0" id="9f5837f5a4"><stop stop-opacity="1" stop-color="rgb(38.398743%, 55.299377%, 81.599426%)" offset="0"/><stop stop-opacity="1" stop-color="rgb(38.398743%, 55.299377%, 81.599426%)" offset="0.25"/><stop stop-opacity="1" stop-color="rgb(38.398743%, 55.299377%, 81.599426%)" offset="0.3125"/><stop stop-opacity="1" stop-color="rgb(38.398743%, 55.299377%, 81.599426%)" offset="0.34375"/><stop stop-opacity="1" stop-color="rgb(38.786316%, 55.487061%, 81.799316%)" offset="0.347656"/><stop stop-opacity="1" stop-color="rgb(39.175415%, 55.674744%, 81.999207%)" offset="0.351563"/><stop stop-opacity="1" stop-color="rgb(39.414978%, 56.114197%, 82.199097%)" offset="0.355469"/><stop stop-opacity="1" stop-color="rgb(39.656067%, 56.555176%, 82.398987%)" offset="0.359375"/><stop stop-opacity="1" stop-color="rgb(39.845276%, 56.745911%, 82.548523%)" offset="0.367188"/><stop stop-opacity="1" stop-color="rgb(40.426636%, 57.276917%, 82.899475%)" offset="0.371094"/><stop stop-opacity="1" stop-color="rgb(40.817261%, 57.617188%, 83.099365%)" offset="0.375"/><stop stop-opacity="1" stop-color="rgb(41.207886%, 57.807922%, 83.099365%)" offset="0.378906"/><stop stop-opacity="1" stop-color="rgb(41.598511%, 57.998657%, 83.099365%)" offset="0.382813"/><stop stop-opacity="1" stop-color="rgb(42.131042%, 58.389282%, 83.299255%)" offset="0.386719"/><stop stop-opacity="1" stop-color="rgb(42.663574%, 58.779907%, 83.499146%)" offset="0.390625"/><stop stop-opacity="1" stop-color="rgb(43.081665%, 59.21936%, 83.729553%)" offset="0.394531"/><stop stop-opacity="1" stop-color="rgb(43.499756%, 59.660339%, 83.959961%)" offset="0.398438"/><stop stop-opacity="1" stop-color="rgb(43.719482%, 60.050964%, 84.150696%)" offset="0.402344"/><stop stop-opacity="1" stop-color="rgb(43.940735%, 60.441589%, 84.341431%)" offset="0.40625"/><stop stop-opacity="1" stop-color="rgb(44.13147%, 60.643005%, 84.53064%)" offset="0.410156"/><stop stop-opacity="1" stop-color="rgb(44.322205%, 60.844421%, 84.721375%)" offset="0.414063"/><stop stop-opacity="1" stop-color="rgb(44.71283%, 61.422729%, 84.912109%)" offset="0.417969"/><stop stop-opacity="1" stop-color="rgb(45.103455%, 62.002563%, 85.102844%)" offset="0.421875"/><stop stop-opacity="1" stop-color="rgb(45.492554%, 62.200928%, 85.301208%)" offset="0.425781"/><stop stop-opacity="1" stop-color="rgb(45.883179%, 62.399292%, 85.499573%)" offset="0.429688"/><stop stop-opacity="1" stop-color="rgb(46.273804%, 62.731934%, 85.681152%)" offset="0.433594"/><stop stop-opacity="1" stop-color="rgb(46.664429%, 63.064575%, 85.864258%)" offset="0.4375"/><stop stop-opacity="1" stop-color="rgb(46.903992%, 63.504028%, 86.080933%)" offset="0.441406"/><stop stop-opacity="1" stop-color="rgb(47.145081%, 63.945007%, 86.299133%)" offset="0.445312"/><stop stop-opacity="1" stop-color="rgb(47.499084%, 64.535522%, 86.512756%)" offset="0.449219"/><stop stop-opacity="1" stop-color="rgb(47.853088%, 65.126038%, 86.726379%)" offset="0.453125"/><stop stop-opacity="1" stop-color="rgb(48.429871%, 65.516663%, 86.915588%)" offset="0.457031"/><stop stop-opacity="1" stop-color="rgb(49.006653%, 65.907288%, 87.106323%)" offset="0.460938"/><stop stop-opacity="1" stop-color="rgb(49.397278%, 66.297913%, 87.303162%)" offset="0.464844"/><stop stop-opacity="1" stop-color="rgb(49.787903%, 66.688538%, 87.5%)" offset="0.46875"/><stop stop-opacity="1" stop-color="rgb(50.363159%, 67.077637%, 87.637329%)" offset="0.472656"/><stop stop-opacity="1" stop-color="rgb(50.938416%, 67.468262%, 87.776184%)" offset="0.476562"/><stop stop-opacity="1" stop-color="rgb(51.393127%, 67.658997%, 87.986755%)" offset="0.480469"/><stop stop-opacity="1" stop-color="rgb(51.849365%, 67.849731%, 88.198853%)" offset="0.484375"/><stop stop-opacity="1" stop-color="rgb(52.050781%, 68.240356%, 88.214111%)" offset="0.488281"/><stop stop-opacity="1" stop-color="rgb(52.253723%, 68.630981%, 88.230896%)" offset="0.492188"/><stop stop-opacity="1" stop-color="rgb(52.781677%, 69.020081%, 88.420105%)" offset="0.496094"/><stop stop-opacity="1" stop-color="rgb(53.311157%, 69.410706%, 88.61084%)" offset="0.5"/><stop stop-opacity="1" stop-color="rgb(53.701782%, 69.801331%, 88.804626%)" offset="0.503906"/><stop stop-opacity="1" stop-color="rgb(54.092407%, 70.191956%, 88.999939%)" offset="0.507812"/><stop stop-opacity="1" stop-color="rgb(54.483032%, 70.38269%, 89.186096%)" offset="0.511719"/><stop stop-opacity="1" stop-color="rgb(54.873657%, 70.573425%, 89.373779%)" offset="0.515625"/><stop stop-opacity="1" stop-color="rgb(55.31311%, 71.012878%, 89.413452%)" offset="0.519531"/><stop stop-opacity="1" stop-color="rgb(55.754089%, 71.453857%, 89.454651%)" offset="0.523437"/><stop stop-opacity="1" stop-color="rgb(56.144714%, 71.644592%, 89.627075%)" offset="0.527344"/><stop stop-opacity="1" stop-color="rgb(56.535339%, 71.835327%, 89.7995%)" offset="0.53125"/><stop stop-opacity="1" stop-color="rgb(56.922913%, 72.175598%, 89.99939%)" offset="0.535156"/><stop stop-opacity="1" stop-color="rgb(57.312012%, 72.515869%, 90.19928%)" offset="0.539062"/><stop stop-opacity="1" stop-color="rgb(57.653809%, 72.906494%, 90.19928%)" offset="0.542969"/><stop stop-opacity="1" stop-color="rgb(57.997131%, 73.297119%, 90.19928%)" offset="0.546875"/><stop stop-opacity="1" stop-color="rgb(58.38623%, 73.486328%, 90.39917%)" offset="0.550781"/><stop stop-opacity="1" stop-color="rgb(58.776855%, 73.677063%, 90.59906%)" offset="0.554687"/><stop stop-opacity="1" stop-color="rgb(59.16748%, 74.067688%, 90.777588%)" offset="0.558594"/><stop stop-opacity="1" stop-color="rgb(59.558105%, 74.458313%, 90.957642%)" offset="0.5625"/><stop stop-opacity="1" stop-color="rgb(59.997559%, 74.697876%, 90.997314%)" offset="0.566406"/><stop stop-opacity="1" stop-color="rgb(60.438538%, 74.938965%, 91.038513%)" offset="0.570312"/><stop stop-opacity="1" stop-color="rgb(60.818481%, 75.318909%, 91.218567%)" offset="0.574219"/><stop stop-opacity="1" stop-color="rgb(61.199951%, 75.698853%, 91.398621%)" offset="0.578125"/><stop stop-opacity="1" stop-color="rgb(61.199951%, 75.698853%, 91.398621%)" offset="0.59375"/><stop stop-opacity="1" stop-color="rgb(61.199951%, 75.698853%, 91.398621%)" offset="0.625"/><stop stop-opacity="1" stop-color="rgb(61.199951%, 75.698853%, 91.398621%)" offset="0.75"/><stop stop-opacity="1" stop-color="rgb(61.199951%, 75.698853%, 91.398621%)" offset="1"/></linearGradient><clipPath id="824bd7fdf0"><path d="M 98.878906 231.421875 L 157.847656 231.421875 L 157.847656 297.695312 L 98.878906 297.695312 Z M 98.878906 231.421875 " clip-rule="nonzero"/></clipPath><clipPath id="5708adf514"><path d="M 157.609375 259.773438 L 157.609375 275.988281 C 157.675781 276.132812 157.675781 276.320312 157.609375 276.5625 L 157.660156 276.507812 L 157.632812 278.699219 L 157.609375 280.207031 C 157.847656 280.902344 157.347656 281.613281 156.097656 282.34375 L 131.550781 296.453125 C 131.4375 296.519531 131.324219 296.578125 131.214844 296.632812 C 129.207031 297.695312 127.199219 297.617188 125.195312 296.398438 L 100.441406 282.289062 C 99.398438 281.664062 98.878906 281.019531 98.878906 280.363281 L 98.878906 231.421875 C 98.886719 231.84375 99.40625 232.378906 100.441406 233.035156 L 110.1875 238.554688 L 110.1875 238.609375 L 112.375 239.910156 L 112.480469 239.910156 L 125.140625 247.25 C 127.261719 248.429688 129.378906 248.414062 131.5 247.199219 L 156.042969 233.035156 C 156.910156 232.585938 157.433594 232.101562 157.609375 231.578125 L 157.609375 259.773438 " clip-rule="nonzero"/></clipPath><linearGradient x1="0.00437298" gradientTransform="matrix(59.405589, 0, 0, 59.353675, 98.618212, 264.398281)" y1="0" x2="0.99704" gradientUnits="userSpaceOnUse" y2="0" id="333795d9e2"><stop stop-opacity="1" stop-color="rgb(97.299194%, 61.199951%, 5.899048%)" offset="0"/><stop stop-opacity="1" stop-color="rgb(97.299194%, 61.199951%, 5.899048%)" offset="0.25"/><stop stop-opacity="1" stop-color="rgb(97.299194%, 61.199951%, 5.899048%)" offset="0.3125"/><stop stop-opacity="1" stop-color="rgb(97.299194%, 61.199951%, 5.899048%)" offset="0.328125"/><stop stop-opacity="1" stop-color="rgb(97.299194%, 61.199951%, 5.888367%)" offset="0.335938"/><stop stop-opacity="1" stop-color="rgb(97.299194%, 61.399841%, 5.688477%)" offset="0.339844"/><stop stop-opacity="1" stop-color="rgb(97.299194%, 61.599731%, 5.499268%)" offset="0.34375"/><stop stop-opacity="1" stop-color="rgb(97.299194%, 61.790466%, 5.499268%)" offset="0.351562"/><stop stop-opacity="1" stop-color="rgb(97.299194%, 62.339783%, 5.499268%)" offset="0.355469"/><stop stop-opacity="1" stop-color="rgb(97.299194%, 62.69989%, 5.499268%)" offset="0.359375"/><stop stop-opacity="1" stop-color="rgb(97.299194%, 62.921143%, 5.476379%)" offset="0.363281"/><stop stop-opacity="1" stop-color="rgb(97.299194%, 63.143921%, 5.455017%)" offset="0.367187"/><stop stop-opacity="1" stop-color="rgb(97.299194%, 63.520813%, 5.276489%)" offset="0.371094"/><stop stop-opacity="1" stop-color="rgb(97.299194%, 63.899231%, 5.099487%)" offset="0.375"/><stop stop-opacity="1" stop-color="rgb(97.299194%, 64.102173%, 5.099487%)" offset="0.378906"/><stop stop-opacity="1" stop-color="rgb(97.299194%, 64.305115%, 5.099487%)" offset="0.382813"/><stop stop-opacity="1" stop-color="rgb(97.444153%, 64.69574%, 5.099487%)" offset="0.386719"/><stop stop-opacity="1" stop-color="rgb(97.589111%, 65.086365%, 5.099487%)" offset="0.390625"/><stop stop-opacity="1" stop-color="rgb(97.593689%, 65.325928%, 5.064392%)" offset="0.394531"/><stop stop-opacity="1" stop-color="rgb(97.599792%, 65.567017%, 5.030823%)" offset="0.398438"/><stop stop-opacity="1" stop-color="rgb(97.599792%, 65.757751%, 4.864502%)" offset="0.40625"/><stop stop-opacity="1" stop-color="rgb(97.599792%, 66.339111%, 4.699707%)" offset="0.410156"/><stop stop-opacity="1" stop-color="rgb(97.599792%, 66.729736%, 4.699707%)" offset="0.414062"/><stop stop-opacity="1" stop-color="rgb(97.599792%, 67.114258%, 4.699707%)" offset="0.417969"/><stop stop-opacity="1" stop-color="rgb(97.599792%, 67.498779%, 4.699707%)" offset="0.421875"/><stop stop-opacity="1" stop-color="rgb(97.599792%, 67.645264%, 4.699707%)" offset="0.429688"/><stop stop-opacity="1" stop-color="rgb(97.599792%, 67.996216%, 4.512024%)" offset="0.433594"/><stop stop-opacity="1" stop-color="rgb(97.599792%, 68.199158%, 4.325867%)" offset="0.4375"/><stop stop-opacity="1" stop-color="rgb(97.599792%, 68.426514%, 4.312134%)" offset="0.441406"/><stop stop-opacity="1" stop-color="rgb(97.599792%, 68.65387%, 4.299927%)" offset="0.445312"/><stop stop-opacity="1" stop-color="rgb(97.799683%, 69.042969%, 4.299927%)" offset="0.449219"/><stop stop-opacity="1" stop-color="rgb(97.999573%, 69.433594%, 4.299927%)" offset="0.453125"/><stop stop-opacity="1" stop-color="rgb(97.999573%, 69.624329%, 4.299927%)" offset="0.460938"/><stop stop-opacity="1" stop-color="rgb(97.999573%, 70.205688%, 4.100037%)" offset="0.464844"/><stop stop-opacity="1" stop-color="rgb(97.999573%, 70.596313%, 3.901672%)" offset="0.46875"/><stop stop-opacity="1" stop-color="rgb(97.999573%, 70.986938%, 3.900146%)" offset="0.472656"/><stop stop-opacity="1" stop-color="rgb(97.999573%, 71.377563%, 3.898621%)" offset="0.476563"/><stop stop-opacity="1" stop-color="rgb(97.999573%, 71.617126%, 3.898621%)" offset="0.480469"/><stop stop-opacity="1" stop-color="rgb(97.999573%, 71.858215%, 3.898621%)" offset="0.484375"/><stop stop-opacity="1" stop-color="rgb(97.999573%, 72.198486%, 3.898621%)" offset="0.488281"/><stop stop-opacity="1" stop-color="rgb(97.999573%, 72.538757%, 3.898621%)" offset="0.492188"/><stop stop-opacity="1" stop-color="rgb(97.808838%, 72.929382%, 3.887939%)" offset="0.496094"/><stop stop-opacity="1" stop-color="rgb(97.619629%, 73.320007%, 3.878784%)" offset="0.5"/><stop stop-opacity="1" stop-color="rgb(97.808838%, 73.709106%, 3.688049%)" offset="0.503906"/><stop stop-opacity="1" stop-color="rgb(97.999573%, 74.099731%, 3.49884%)" offset="0.507812"/><stop stop-opacity="1" stop-color="rgb(97.999573%, 74.290466%, 3.49884%)" offset="0.515625"/><stop stop-opacity="1" stop-color="rgb(98.199463%, 74.72229%, 3.466797%)" offset="0.519531"/><stop stop-opacity="1" stop-color="rgb(98.399353%, 74.963379%, 3.434753%)" offset="0.523438"/><stop stop-opacity="1" stop-color="rgb(98.399353%, 75.354004%, 3.266907%)" offset="0.527344"/><stop stop-opacity="1" stop-color="rgb(98.399353%, 75.744629%, 3.09906%)" offset="0.53125"/><stop stop-opacity="1" stop-color="rgb(98.399353%, 76.133728%, 3.09906%)" offset="0.535156"/><stop stop-opacity="1" stop-color="rgb(98.399353%, 76.524353%, 3.09906%)" offset="0.539062"/><stop stop-opacity="1" stop-color="rgb(98.399353%, 76.911926%, 3.09906%)" offset="0.542969"/><stop stop-opacity="1" stop-color="rgb(98.399353%, 77.2995%, 3.09906%)" offset="0.546875"/><stop stop-opacity="1" stop-color="rgb(98.399353%, 77.444458%, 2.905273%)" offset="0.554688"/><stop stop-opacity="1" stop-color="rgb(98.214722%, 77.778625%, 2.705383%)" offset="0.5625"/><stop stop-opacity="1" stop-color="rgb(98.214722%, 78.382874%, 2.69928%)" offset="0.566406"/><stop stop-opacity="1" stop-color="rgb(98.399353%, 78.799438%, 2.69928%)" offset="0.570312"/><stop stop-opacity="1" stop-color="rgb(98.399353%, 78.799438%, 2.69928%)" offset="0.578125"/><stop stop-opacity="1" stop-color="rgb(98.399353%, 78.799438%, 2.69928%)" offset="0.59375"/><stop stop-opacity="1" stop-color="rgb(98.399353%, 78.799438%, 2.69928%)" offset="0.625"/><stop stop-opacity="1" stop-color="rgb(98.399353%, 78.799438%, 2.69928%)" offset="0.75"/><stop stop-opacity="1" stop-color="rgb(98.399353%, 78.799438%, 2.69928%)" offset="1"/></linearGradient><clipPath id="14c72fbfec"><path d="M 208.882812 122.242188 L 253.367188 122.242188 L 253.367188 239.75 L 208.882812 239.75 Z M 208.882812 122.242188 " clip-rule="nonzero"/></clipPath><clipPath id="96d382359a"><path d="M 253.175781 139.449219 L 253.125 217.523438 L 253.125 217.988281 C 253.191406 218.164062 253.191406 218.355469 253.125 218.5625 L 253.175781 218.511719 L 253.125 222.261719 C 253.367188 222.953125 252.863281 223.664062 251.613281 224.390625 L 227.070312 238.503906 C 224.953125 239.75 222.832031 239.734375 220.710938 238.449219 L 208.882812 231.710938 L 208.882812 192.21875 L 208.9375 187.792969 L 208.882812 187.84375 C 208.953125 187.636719 208.953125 187.445312 208.882812 187.273438 L 208.882812 180.140625 L 208.9375 180.089844 L 208.9375 180.035156 C 208.9375 179.929688 208.914062 179.84375 208.882812 179.773438 C 208.882812 179.707031 208.882812 179.652344 208.882812 179.621094 L 208.882812 148.40625 L 220.710938 155.148438 C 222.832031 156.429688 224.953125 156.453125 227.070312 155.199219 L 251.613281 141.09375 C 252.578125 140.527344 253.101562 139.980469 253.175781 139.449219 Z M 253.175781 135.078125 L 253.175781 135.207031 L 253.125 135.261719 C 253.144531 135.195312 253.164062 135.132812 253.175781 135.078125 Z M 253.175781 139.1875 C 253.167969 139.109375 253.148438 139.03125 253.125 138.957031 L 253.175781 136.148438 Z M 253.175781 122.242188 L 253.175781 134.894531 C 253.167969 134.824219 253.152344 134.753906 253.125 134.6875 L 253.125 122.398438 C 253.144531 122.347656 253.164062 122.296875 253.175781 122.242188 " clip-rule="nonzero"/></clipPath><linearGradient x1="0.248264" gradientTransform="matrix(59.405589, 0, 0, 59.353675, 194.1351, 180.835596)" y1="0" x2="0.997099" gradientUnits="userSpaceOnUse" y2="0" id="c7455dcc1a"><stop stop-opacity="1" stop-color="rgb(38.398743%, 55.299377%, 81.599426%)" offset="0"/><stop stop-opacity="1" stop-color="rgb(38.406372%, 55.299377%, 81.599426%)" offset="0.125"/><stop stop-opacity="1" stop-color="rgb(38.613892%, 55.305481%, 81.60553%)" offset="0.128906"/><stop stop-opacity="1" stop-color="rgb(38.812256%, 55.31311%, 81.613159%)" offset="0.132812"/><stop stop-opacity="1" stop-color="rgb(39.006042%, 55.505371%, 81.80542%)" offset="0.140625"/><stop stop-opacity="1" stop-color="rgb(39.399719%, 56.098938%, 82.199097%)" offset="0.144531"/><stop stop-opacity="1" stop-color="rgb(39.599609%, 56.498718%, 82.398987%)" offset="0.148438"/><stop stop-opacity="1" stop-color="rgb(39.826965%, 56.7276%, 82.548523%)" offset="0.152344"/><stop stop-opacity="1" stop-color="rgb(40.055847%, 56.956482%, 82.699585%)" offset="0.15625"/><stop stop-opacity="1" stop-color="rgb(40.246582%, 57.141113%, 82.717896%)" offset="0.164062"/><stop stop-opacity="1" stop-color="rgb(40.817261%, 57.472229%, 82.917786%)" offset="0.167969"/><stop stop-opacity="1" stop-color="rgb(41.19873%, 57.618713%, 83.099365%)" offset="0.171875"/><stop stop-opacity="1" stop-color="rgb(41.398621%, 57.807922%, 83.099365%)" offset="0.175781"/><stop stop-opacity="1" stop-color="rgb(41.598511%, 57.998657%, 83.099365%)" offset="0.179688"/><stop stop-opacity="1" stop-color="rgb(41.989136%, 58.389282%, 83.299255%)" offset="0.183594"/><stop stop-opacity="1" stop-color="rgb(42.379761%, 58.779907%, 83.499146%)" offset="0.1875"/><stop stop-opacity="1" stop-color="rgb(42.739868%, 59.020996%, 83.699036%)" offset="0.191406"/><stop stop-opacity="1" stop-color="rgb(43.099976%, 59.262085%, 83.898926%)" offset="0.195312"/><stop stop-opacity="1" stop-color="rgb(43.321228%, 59.451294%, 83.920288%)" offset="0.199219"/><stop stop-opacity="1" stop-color="rgb(43.54248%, 59.642029%, 83.943176%)" offset="0.203125"/><stop stop-opacity="1" stop-color="rgb(43.733215%, 60.020447%, 84.120178%)" offset="0.207031"/><stop stop-opacity="1" stop-color="rgb(43.92395%, 60.398865%, 84.298706%)" offset="0.210937"/><stop stop-opacity="1" stop-color="rgb(44.113159%, 60.601807%, 84.498596%)" offset="0.214844"/><stop stop-opacity="1" stop-color="rgb(44.303894%, 60.804749%, 84.698486%)" offset="0.21875"/><stop stop-opacity="1" stop-color="rgb(44.500732%, 61.001587%, 84.698486%)" offset="0.222656"/><stop stop-opacity="1" stop-color="rgb(44.699097%, 61.199951%, 84.698486%)" offset="0.226562"/><stop stop-opacity="1" stop-color="rgb(44.932556%, 61.633301%, 85.098267%)" offset="0.230469"/><stop stop-opacity="1" stop-color="rgb(45.167542%, 62.06665%, 85.499573%)" offset="0.234375"/><stop stop-opacity="1" stop-color="rgb(45.533752%, 62.251282%, 85.499573%)" offset="0.238281"/><stop stop-opacity="1" stop-color="rgb(45.899963%, 62.435913%, 85.499573%)" offset="0.242187"/><stop stop-opacity="1" stop-color="rgb(46.113586%, 62.767029%, 85.699463%)" offset="0.246094"/><stop stop-opacity="1" stop-color="rgb(46.328735%, 63.09967%, 85.899353%)" offset="0.25"/><stop stop-opacity="1" stop-color="rgb(46.713257%, 63.304138%, 85.903931%)" offset="0.253906"/><stop stop-opacity="1" stop-color="rgb(47.099304%, 63.510132%, 85.910034%)" offset="0.257812"/><stop stop-opacity="1" stop-color="rgb(47.294617%, 63.900757%, 86.103821%)" offset="0.261719"/><stop stop-opacity="1" stop-color="rgb(47.491455%, 64.291382%, 86.299133%)" offset="0.265625"/><stop stop-opacity="1" stop-color="rgb(47.68219%, 64.730835%, 86.499023%)" offset="0.269531"/><stop stop-opacity="1" stop-color="rgb(47.872925%, 65.171814%, 86.698914%)" offset="0.273437"/><stop stop-opacity="1" stop-color="rgb(48.435974%, 65.362549%, 86.898804%)" offset="0.277344"/><stop stop-opacity="1" stop-color="rgb(48.999023%, 65.553284%, 87.098694%)" offset="0.28125"/><stop stop-opacity="1" stop-color="rgb(49.215698%, 65.943909%, 87.298584%)" offset="0.285156"/><stop stop-opacity="1" stop-color="rgb(49.433899%, 66.334534%, 87.5%)" offset="0.289062"/><stop stop-opacity="1" stop-color="rgb(49.824524%, 66.525269%, 87.504578%)" offset="0.292969"/><stop stop-opacity="1" stop-color="rgb(50.215149%, 66.716003%, 87.510681%)" offset="0.296875"/><stop stop-opacity="1" stop-color="rgb(50.605774%, 67.105103%, 87.654114%)" offset="0.300781"/><stop stop-opacity="1" stop-color="rgb(50.996399%, 67.495728%, 87.799072%)" offset="0.304687"/><stop stop-opacity="1" stop-color="rgb(51.187134%, 67.64679%, 87.988281%)" offset="0.3125"/><stop stop-opacity="1" stop-color="rgb(51.78833%, 68.028259%, 88.188171%)" offset="0.316406"/><stop stop-opacity="1" stop-color="rgb(52.198792%, 68.258667%, 88.198853%)" offset="0.320312"/><stop stop-opacity="1" stop-color="rgb(52.368164%, 68.649292%, 88.398743%)" offset="0.324219"/><stop stop-opacity="1" stop-color="rgb(52.539062%, 69.039917%, 88.598633%)" offset="0.328125"/><stop stop-opacity="1" stop-color="rgb(52.929688%, 69.419861%, 88.798523%)" offset="0.332031"/><stop stop-opacity="1" stop-color="rgb(53.320312%, 69.799805%, 88.999939%)" offset="0.335937"/><stop stop-opacity="1" stop-color="rgb(53.710938%, 69.799805%, 88.999939%)" offset="0.339844"/><stop stop-opacity="1" stop-color="rgb(54.101562%, 69.801331%, 88.999939%)" offset="0.34375"/><stop stop-opacity="1" stop-color="rgb(54.299927%, 70.191956%, 88.999939%)" offset="0.347656"/><stop stop-opacity="1" stop-color="rgb(54.499817%, 70.582581%, 88.999939%)" offset="0.351562"/><stop stop-opacity="1" stop-color="rgb(54.931641%, 70.7901%, 89.199829%)" offset="0.355469"/><stop stop-opacity="1" stop-color="rgb(55.363464%, 70.999146%, 89.399719%)" offset="0.359375"/><stop stop-opacity="1" stop-color="rgb(55.554199%, 71.221924%, 89.422607%)" offset="0.363281"/><stop stop-opacity="1" stop-color="rgb(55.744934%, 71.444702%, 89.445496%)" offset="0.367188"/><stop stop-opacity="1" stop-color="rgb(56.135559%, 71.635437%, 89.622498%)" offset="0.371094"/><stop stop-opacity="1" stop-color="rgb(56.526184%, 71.826172%, 89.7995%)" offset="0.375"/><stop stop-opacity="1" stop-color="rgb(56.716919%, 72.015381%, 89.802551%)" offset="0.382812"/><stop stop-opacity="1" stop-color="rgb(57.249451%, 72.546387%, 90.002441%)" offset="0.386719"/><stop stop-opacity="1" stop-color="rgb(57.591248%, 72.888184%, 90.19928%)" offset="0.390625"/><stop stop-opacity="1" stop-color="rgb(57.829285%, 73.092651%, 90.234375%)" offset="0.394531"/><stop stop-opacity="1" stop-color="rgb(58.068848%, 73.298645%, 90.26947%)" offset="0.398438"/><stop stop-opacity="1" stop-color="rgb(58.459473%, 73.524475%, 90.434265%)" offset="0.402344"/><stop stop-opacity="1" stop-color="rgb(58.850098%, 73.750305%, 90.59906%)" offset="0.40625"/><stop stop-opacity="1" stop-color="rgb(59.040833%, 73.94104%, 90.614319%)" offset="0.414063"/><stop stop-opacity="1" stop-color="rgb(59.622192%, 74.32251%, 90.814209%)" offset="0.417969"/><stop stop-opacity="1" stop-color="rgb(60.012817%, 74.513245%, 90.99884%)" offset="0.421875"/><stop stop-opacity="1" stop-color="rgb(60.205078%, 74.705505%, 90.99884%)" offset="0.429688"/><stop stop-opacity="1" stop-color="rgb(60.786438%, 75.286865%, 91.19873%)" offset="0.433594"/><stop stop-opacity="1" stop-color="rgb(61.175537%, 75.674438%, 91.398621%)" offset="0.4375"/><stop stop-opacity="1" stop-color="rgb(61.187744%, 75.686646%, 91.398621%)" offset="0.5"/><stop stop-opacity="1" stop-color="rgb(61.199951%, 75.698853%, 91.398621%)" offset="1"/></linearGradient><clipPath id="0ad4210efd"><path d="M 150.105469 191.722656 L 208.882812 191.722656 L 208.882812 267.140625 L 150.105469 267.140625 Z M 150.105469 191.722656 " clip-rule="nonzero"/></clipPath><clipPath id="d632b62660"><path d="M 150.105469 200.679688 L 150.105469 191.722656 C 150.117188 192.339844 150.636719 192.972656 151.667969 193.625 L 176.46875 207.730469 C 178.589844 209.015625 180.707031 209.03125 182.828125 207.785156 L 207.320312 193.675781 C 208.195312 193.179688 208.714844 192.695312 208.882812 192.21875 L 208.882812 244.804688 L 192.207031 254.640625 L 192.207031 260.683594 L 182.828125 266.097656 C 180.707031 267.34375 178.589844 267.328125 176.46875 266.042969 L 157.609375 255.320312 L 157.609375 231.578125 C 157.640625 231.542969 157.660156 231.511719 157.660156 231.472656 L 157.660156 231.421875 C 157.660156 231.320312 157.640625 231.214844 157.609375 231.113281 L 157.609375 231.058594 C 157.539062 230.5 157.015625 229.949219 156.042969 229.390625 L 150.105469 225.953125 L 150.105469 200.679688 " clip-rule="nonzero"/></clipPath><linearGradient x1="0.00355454" gradientTransform="matrix(59.405589, 0, 0, 59.353675, 149.893571, 229.373363)" y1="0" x2="0.993001" gradientUnits="userSpaceOnUse" y2="0" id="9a4911d63e"><stop stop-opacity="1" stop-color="rgb(59.999084%, 55.699158%, 81.199646%)" offset="0"/><stop stop-opacity="1" stop-color="rgb(59.999084%, 55.699158%, 81.199646%)" offset="0.25"/><stop stop-opacity="1" stop-color="rgb(59.999084%, 55.699158%, 81.199646%)" offset="0.3125"/><stop stop-opacity="1" stop-color="rgb(59.999084%, 55.793762%, 81.199646%)" offset="0.328125"/><stop stop-opacity="1" stop-color="rgb(59.999084%, 55.990601%, 81.199646%)" offset="0.34375"/><stop stop-opacity="1" stop-color="rgb(60.398865%, 56.295776%, 81.362915%)" offset="0.347656"/><stop stop-opacity="1" stop-color="rgb(60.798645%, 56.498718%, 81.526184%)" offset="0.351562"/><stop stop-opacity="1" stop-color="rgb(61.203003%, 56.90155%, 81.762695%)" offset="0.355469"/><stop stop-opacity="1" stop-color="rgb(61.607361%, 57.305908%, 81.999207%)" offset="0.359375"/><stop stop-opacity="1" stop-color="rgb(61.997986%, 57.647705%, 82.194519%)" offset="0.363281"/><stop stop-opacity="1" stop-color="rgb(62.390137%, 57.989502%, 82.389832%)" offset="0.367187"/><stop stop-opacity="1" stop-color="rgb(62.730408%, 58.19397%, 82.394409%)" offset="0.371094"/><stop stop-opacity="1" stop-color="rgb(63.070679%, 58.399963%, 82.398987%)" offset="0.375"/><stop stop-opacity="1" stop-color="rgb(63.461304%, 58.77533%, 82.548523%)" offset="0.378906"/><stop stop-opacity="1" stop-color="rgb(63.853455%, 59.152222%, 82.699585%)" offset="0.382812"/><stop stop-opacity="1" stop-color="rgb(64.4104%, 59.542847%, 82.899475%)" offset="0.386719"/><stop stop-opacity="1" stop-color="rgb(64.968872%, 59.934998%, 83.099365%)" offset="0.390625"/><stop stop-opacity="1" stop-color="rgb(65.441895%, 60.374451%, 83.299255%)" offset="0.394531"/><stop stop-opacity="1" stop-color="rgb(65.916443%, 60.81543%, 83.499146%)" offset="0.398438"/><stop stop-opacity="1" stop-color="rgb(66.307068%, 61.206055%, 83.69751%)" offset="0.402344"/><stop stop-opacity="1" stop-color="rgb(66.697693%, 61.598206%, 83.8974%)" offset="0.40625"/><stop stop-opacity="1" stop-color="rgb(66.888428%, 61.988831%, 84.088135%)" offset="0.410156"/><stop stop-opacity="1" stop-color="rgb(67.079163%, 62.379456%, 84.27887%)" offset="0.414062"/><stop stop-opacity="1" stop-color="rgb(67.269897%, 62.719727%, 84.288025%)" offset="0.417969"/><stop stop-opacity="1" stop-color="rgb(67.460632%, 63.059998%, 84.298706%)" offset="0.421875"/><stop stop-opacity="1" stop-color="rgb(67.800903%, 63.450623%, 84.498596%)" offset="0.425781"/><stop stop-opacity="1" stop-color="rgb(68.1427%, 63.842773%, 84.698486%)" offset="0.429688"/><stop stop-opacity="1" stop-color="rgb(68.333435%, 64.033508%, 84.898376%)" offset="0.433594"/><stop stop-opacity="1" stop-color="rgb(68.52417%, 64.224243%, 85.099792%)" offset="0.4375"/><stop stop-opacity="1" stop-color="rgb(68.965149%, 64.660645%, 85.299683%)" offset="0.441406"/><stop stop-opacity="1" stop-color="rgb(69.406128%, 65.098572%, 85.499573%)" offset="0.445312"/><stop stop-opacity="1" stop-color="rgb(69.602966%, 65.292358%, 85.499573%)" offset="0.449219"/><stop stop-opacity="1" stop-color="rgb(69.799805%, 65.487671%, 85.499573%)" offset="0.453125"/><stop stop-opacity="1" stop-color="rgb(70.184326%, 65.878296%, 85.699463%)" offset="0.457031"/><stop stop-opacity="1" stop-color="rgb(70.568848%, 66.268921%, 85.899353%)" offset="0.460938"/><stop stop-opacity="1" stop-color="rgb(70.959473%, 66.659546%, 86.099243%)" offset="0.464844"/><stop stop-opacity="1" stop-color="rgb(71.350098%, 67.050171%, 86.299133%)" offset="0.46875"/><stop stop-opacity="1" stop-color="rgb(71.740723%, 67.399597%, 86.499023%)" offset="0.472656"/><stop stop-opacity="1" stop-color="rgb(72.131348%, 67.749023%, 86.698914%)" offset="0.476562"/><stop stop-opacity="1" stop-color="rgb(72.514343%, 67.980957%, 86.706543%)" offset="0.480469"/><stop stop-opacity="1" stop-color="rgb(72.898865%, 68.212891%, 86.714172%)" offset="0.484375"/><stop stop-opacity="1" stop-color="rgb(73.097229%, 68.603516%, 86.906433%)" offset="0.488281"/><stop stop-opacity="1" stop-color="rgb(73.295593%, 68.995667%, 87.098694%)" offset="0.492188"/><stop stop-opacity="1" stop-color="rgb(73.497009%, 69.197083%, 87.298584%)" offset="0.496094"/><stop stop-opacity="1" stop-color="rgb(73.699951%, 69.398499%, 87.5%)" offset="0.5"/><stop stop-opacity="1" stop-color="rgb(74.078369%, 69.778442%, 87.634277%)" offset="0.503906"/><stop stop-opacity="1" stop-color="rgb(74.458313%, 70.158386%, 87.768555%)" offset="0.507812"/><stop stop-opacity="1" stop-color="rgb(74.848938%, 70.549011%, 87.783813%)" offset="0.511719"/><stop stop-opacity="1" stop-color="rgb(75.239563%, 70.939636%, 87.799072%)" offset="0.515625"/><stop stop-opacity="1" stop-color="rgb(75.480652%, 71.380615%, 88.009644%)" offset="0.519531"/><stop stop-opacity="1" stop-color="rgb(75.721741%, 71.821594%, 88.221741%)" offset="0.523438"/><stop stop-opacity="1" stop-color="rgb(76.112366%, 72.010803%, 88.409424%)" offset="0.527344"/><stop stop-opacity="1" stop-color="rgb(76.502991%, 72.201538%, 88.598633%)" offset="0.53125"/><stop stop-opacity="1" stop-color="rgb(76.893616%, 72.543335%, 88.790894%)" offset="0.535156"/><stop stop-opacity="1" stop-color="rgb(77.284241%, 72.885132%, 88.98468%)" offset="0.539063"/><stop stop-opacity="1" stop-color="rgb(77.441406%, 73.275757%, 88.99231%)" offset="0.542969"/><stop stop-opacity="1" stop-color="rgb(77.598572%, 73.666382%, 88.999939%)" offset="0.546875"/><stop stop-opacity="1" stop-color="rgb(77.972412%, 73.857117%, 89.199829%)" offset="0.550781"/><stop stop-opacity="1" stop-color="rgb(78.347778%, 74.047852%, 89.399719%)" offset="0.554688"/><stop stop-opacity="1" stop-color="rgb(78.738403%, 74.438477%, 89.599609%)" offset="0.558594"/><stop stop-opacity="1" stop-color="rgb(79.129028%, 74.829102%, 89.7995%)" offset="0.5625"/><stop stop-opacity="1" stop-color="rgb(79.370117%, 75.270081%, 89.99939%)" offset="0.566406"/><stop stop-opacity="1" stop-color="rgb(79.611206%, 75.71106%, 90.19928%)" offset="0.570312"/><stop stop-opacity="1" stop-color="rgb(80.001831%, 75.904846%, 90.19928%)" offset="0.574219"/><stop stop-opacity="1" stop-color="rgb(80.392456%, 76.098633%, 90.19928%)" offset="0.578125"/><stop stop-opacity="1" stop-color="rgb(80.395508%, 76.098633%, 90.19928%)" offset="0.59375"/><stop stop-opacity="1" stop-color="rgb(80.39856%, 76.098633%, 90.19928%)" offset="0.625"/><stop stop-opacity="1" stop-color="rgb(80.39856%, 76.098633%, 90.19928%)" offset="0.75"/><stop stop-opacity="1" stop-color="rgb(80.39856%, 76.098633%, 90.19928%)" offset="1"/></linearGradient><clipPath id="1f90167872"><path d="M 150.105469 121.722656 L 208.953125 121.722656 L 208.953125 208.828125 L 150.105469 208.828125 Z M 150.105469 121.722656 " clip-rule="nonzero"/></clipPath><clipPath id="8d441510ac"><path d="M 208.882812 121.828125 L 208.882812 179.621094 C 208.882812 179.652344 208.882812 179.707031 208.882812 179.773438 L 208.882812 187.273438 C 208.953125 187.445312 208.953125 187.636719 208.882812 187.84375 L 208.9375 187.792969 L 208.882812 192.21875 C 208.714844 192.695312 208.195312 193.179688 207.320312 193.675781 L 182.828125 207.785156 C 180.707031 209.03125 178.589844 209.015625 176.46875 207.730469 L 151.667969 193.625 C 150.636719 192.972656 150.117188 192.339844 150.105469 191.722656 L 150.105469 179.828125 C 150.105469 179.757812 150.105469 179.691406 150.105469 179.621094 L 150.105469 121.722656 C 150.109375 122.144531 150.628906 122.667969 151.667969 123.285156 L 161.464844 128.859375 L 161.410156 128.90625 L 163.652344 130.160156 L 163.703125 130.160156 L 176.367188 137.550781 C 178.519531 138.730469 180.65625 138.714844 182.773438 137.496094 L 207.265625 123.339844 C 208.171875 122.816406 208.707031 122.3125 208.882812 121.828125 " clip-rule="nonzero"/></clipPath><linearGradient x1="0.00355454" gradientTransform="matrix(59.405589, 0, 0, 59.353675, 149.893571, 165.216196)" y1="0" x2="0.994166" gradientUnits="userSpaceOnUse" y2="0" id="25b565c81d"><stop stop-opacity="1" stop-color="rgb(59.999084%, 55.699158%, 81.199646%)" offset="0"/><stop stop-opacity="1" stop-color="rgb(59.999084%, 55.699158%, 81.199646%)" offset="0.25"/><stop stop-opacity="1" stop-color="rgb(59.999084%, 55.699158%, 81.199646%)" offset="0.3125"/><stop stop-opacity="1" stop-color="rgb(59.999084%, 55.795288%, 81.199646%)" offset="0.328125"/><stop stop-opacity="1" stop-color="rgb(59.999084%, 55.992126%, 81.199646%)" offset="0.34375"/><stop stop-opacity="1" stop-color="rgb(60.565186%, 56.295776%, 81.365967%)" offset="0.347656"/><stop stop-opacity="1" stop-color="rgb(61.132812%, 56.498718%, 81.532288%)" offset="0.351562"/><stop stop-opacity="1" stop-color="rgb(61.372375%, 56.904602%, 81.765747%)" offset="0.355469"/><stop stop-opacity="1" stop-color="rgb(61.613464%, 57.310486%, 81.999207%)" offset="0.359375"/><stop stop-opacity="1" stop-color="rgb(62.004089%, 57.652283%, 82.197571%)" offset="0.363281"/><stop stop-opacity="1" stop-color="rgb(62.39624%, 57.995605%, 82.395935%)" offset="0.367188"/><stop stop-opacity="1" stop-color="rgb(62.736511%, 58.197021%, 82.397461%)" offset="0.371094"/><stop stop-opacity="1" stop-color="rgb(63.076782%, 58.399963%, 82.398987%)" offset="0.375"/><stop stop-opacity="1" stop-color="rgb(63.467407%, 58.779907%, 82.548523%)" offset="0.378906"/><stop stop-opacity="1" stop-color="rgb(63.859558%, 59.159851%, 82.699585%)" offset="0.382812"/><stop stop-opacity="1" stop-color="rgb(64.450073%, 59.550476%, 82.899475%)" offset="0.386719"/><stop stop-opacity="1" stop-color="rgb(65.040588%, 59.941101%, 83.099365%)" offset="0.390625"/><stop stop-opacity="1" stop-color="rgb(65.481567%, 60.392761%, 83.309937%)" offset="0.394531"/><stop stop-opacity="1" stop-color="rgb(65.922546%, 60.845947%, 83.522034%)" offset="0.398438"/><stop stop-opacity="1" stop-color="rgb(66.31012%, 61.422729%, 83.709717%)" offset="0.402344"/><stop stop-opacity="1" stop-color="rgb(66.699219%, 61.999512%, 83.898926%)" offset="0.40625"/><stop stop-opacity="1" stop-color="rgb(66.893005%, 62.191772%, 84.092712%)" offset="0.414062"/><stop stop-opacity="1" stop-color="rgb(67.430115%, 62.72583%, 84.292603%)" offset="0.417969"/><stop stop-opacity="1" stop-color="rgb(67.774963%, 63.067627%, 84.298706%)" offset="0.421875"/><stop stop-opacity="1" stop-color="rgb(67.961121%, 63.458252%, 84.498596%)" offset="0.425781"/><stop stop-opacity="1" stop-color="rgb(68.148804%, 63.848877%, 84.698486%)" offset="0.429688"/><stop stop-opacity="1" stop-color="rgb(68.373108%, 64.039612%, 84.898376%)" offset="0.433594"/><stop stop-opacity="1" stop-color="rgb(68.598938%, 64.231873%, 85.099792%)" offset="0.4375"/><stop stop-opacity="1" stop-color="rgb(69.004822%, 64.671326%, 85.299683%)" offset="0.441406"/><stop stop-opacity="1" stop-color="rgb(69.412231%, 65.112305%, 85.499573%)" offset="0.445312"/><stop stop-opacity="1" stop-color="rgb(69.606018%, 65.306091%, 85.499573%)" offset="0.453125"/><stop stop-opacity="1" stop-color="rgb(70.187378%, 65.887451%, 85.699463%)" offset="0.457031"/><stop stop-opacity="1" stop-color="rgb(70.576477%, 66.27655%, 85.899353%)" offset="0.460938"/><stop stop-opacity="1" stop-color="rgb(70.967102%, 66.667175%, 86.099243%)" offset="0.464844"/><stop stop-opacity="1" stop-color="rgb(71.357727%, 67.0578%, 86.299133%)" offset="0.46875"/><stop stop-opacity="1" stop-color="rgb(71.748352%, 67.405701%, 86.499023%)" offset="0.472656"/><stop stop-opacity="1" stop-color="rgb(72.140503%, 67.755127%, 86.698914%)" offset="0.476562"/><stop stop-opacity="1" stop-color="rgb(72.518921%, 67.988586%, 86.709595%)" offset="0.480469"/><stop stop-opacity="1" stop-color="rgb(72.898865%, 68.222046%, 86.721802%)" offset="0.484375"/><stop stop-opacity="1" stop-color="rgb(73.100281%, 68.612671%, 86.912537%)" offset="0.488281"/><stop stop-opacity="1" stop-color="rgb(73.303223%, 69.003296%, 87.103271%)" offset="0.492188"/><stop stop-opacity="1" stop-color="rgb(73.501587%, 69.200134%, 87.301636%)" offset="0.496094"/><stop stop-opacity="1" stop-color="rgb(73.699951%, 69.398499%, 87.5%)" offset="0.5"/><stop stop-opacity="1" stop-color="rgb(74.082947%, 69.966125%, 87.637329%)" offset="0.503906"/><stop stop-opacity="1" stop-color="rgb(74.467468%, 70.533752%, 87.774658%)" offset="0.507812"/><stop stop-opacity="1" stop-color="rgb(74.858093%, 70.741272%, 87.960815%)" offset="0.511719"/><stop stop-opacity="1" stop-color="rgb(75.248718%, 70.948792%, 88.148499%)" offset="0.515625"/><stop stop-opacity="1" stop-color="rgb(75.489807%, 71.389771%, 88.189697%)" offset="0.519531"/><stop stop-opacity="1" stop-color="rgb(75.730896%, 71.83075%, 88.230896%)" offset="0.523438"/><stop stop-opacity="1" stop-color="rgb(76.121521%, 72.019958%, 88.414001%)" offset="0.527344"/><stop stop-opacity="1" stop-color="rgb(76.512146%, 72.209167%, 88.598633%)" offset="0.53125"/><stop stop-opacity="1" stop-color="rgb(76.902771%, 72.550964%, 88.795471%)" offset="0.535156"/><stop stop-opacity="1" stop-color="rgb(77.293396%, 72.894287%, 88.993835%)" offset="0.539062"/><stop stop-opacity="1" stop-color="rgb(77.633667%, 73.284912%, 89.18457%)" offset="0.542969"/><stop stop-opacity="1" stop-color="rgb(77.975464%, 73.675537%, 89.375305%)" offset="0.546875"/><stop stop-opacity="1" stop-color="rgb(78.366089%, 73.887634%, 89.387512%)" offset="0.550781"/><stop stop-opacity="1" stop-color="rgb(78.756714%, 74.099731%, 89.399719%)" offset="0.554687"/><stop stop-opacity="1" stop-color="rgb(78.947449%, 74.638367%, 89.599609%)" offset="0.558594"/><stop stop-opacity="1" stop-color="rgb(79.139709%, 75.178528%, 89.7995%)" offset="0.5625"/><stop stop-opacity="1" stop-color="rgb(79.568481%, 75.448608%, 89.99939%)" offset="0.566406"/><stop stop-opacity="1" stop-color="rgb(79.998779%, 75.720215%, 90.19928%)" offset="0.570312"/><stop stop-opacity="1" stop-color="rgb(80.198669%, 75.909424%, 90.19928%)" offset="0.574219"/><stop stop-opacity="1" stop-color="rgb(80.39856%, 76.098633%, 90.19928%)" offset="0.578125"/><stop stop-opacity="1" stop-color="rgb(80.39856%, 76.098633%, 90.19928%)" offset="0.59375"/><stop stop-opacity="1" stop-color="rgb(80.39856%, 76.098633%, 90.19928%)" offset="0.625"/><stop stop-opacity="1" stop-color="rgb(80.39856%, 76.098633%, 90.19928%)" offset="0.75"/><stop stop-opacity="1" stop-color="rgb(80.39856%, 76.098633%, 90.19928%)" offset="1"/></linearGradient></defs><g clip-path="url(#46bbc451b7)"><path fill="#f6fcfe" d="M 198.667969 316.757812 C 197.382812 315.644531 196.394531 314.761719 195.695312 314.101562 L 182.414062 321.804688 L 188.507812 325.296875 L 200.648438 318.320312 C 199.988281 317.867188 199.328125 317.347656 198.667969 316.757812 Z M 226.496094 347.214844 L 252.917969 331.90625 C 252.394531 331.492188 251.835938 331.039062 251.246094 330.554688 C 249.859375 329.476562 248.730469 328.574219 247.859375 327.847656 L 220.402344 343.671875 Z M 218.730469 330.035156 L 207.734375 336.382812 L 213.832031 339.925781 L 222.847656 334.769531 C 221.980469 334.007812 221.113281 333.085938 220.242188 332.011719 C 219.652344 331.316406 219.148438 330.65625 218.730469 330.035156 Z M 227.222656 314.257812 C 226.179688 313.351562 225.332031 312.609375 224.671875 312.019531 L 195.074219 329.09375 L 201.167969 332.585938 L 227.851562 317.226562 L 227.796875 317.171875 L 229.46875 316.183594 C 228.808594 315.628906 228.058594 314.984375 227.222656 314.257812 Z M 273.707031 312.851562 L 250.777344 326.128906 C 253.730469 327.132812 255.9375 328.191406 257.398438 329.300781 L 279.804688 316.339844 Z M 261.046875 305.5625 L 222.640625 327.792969 C 223.367188 328.3125 224.203125 328.941406 225.140625 329.667969 C 226.148438 330.503906 227.015625 331.246094 227.746094 331.90625 L 240.511719 324.515625 L 240.464844 324.460938 L 267.195312 309.050781 Z M 270.007812 287.289062 L 258.335938 294.003906 L 264.378906 297.492188 L 275.792969 290.933594 C 273.429688 289.472656 271.5 288.261719 270.007812 287.289062 Z M 235.773438 290.933594 L 198.667969 312.382812 C 199.46875 312.730469 200.371094 313.144531 201.378906 313.632812 C 202.90625 314.363281 204.175781 315.039062 205.183594 315.664062 L 215.191406 309.882812 L 215.136719 309.832031 L 241.867188 294.472656 Z M 248.382812 298.222656 L 227.589844 310.296875 C 228.355469 310.648438 229.167969 311.078125 230.039062 311.601562 C 231.464844 312.433594 232.59375 313.214844 233.429688 313.941406 L 254.53125 301.761719 Z M 264.796875 259.640625 C 266.359375 260.578125 267.160156 261.691406 267.195312 262.972656 C 267.195312 264.292969 266.414062 265.402344 264.847656 266.304688 C 264.671875 266.378906 264.503906 266.441406 264.328125 266.515625 C 262.871094 267.242188 261.167969 267.574219 259.222656 267.503906 C 257.03125 267.46875 255.140625 267.019531 253.539062 266.148438 C 253.539062 266.117188 253.523438 266.082031 253.492188 266.042969 C 251.890625 265.109375 251.09375 263.980469 251.09375 262.660156 C 251.054688 261.480469 251.667969 260.476562 252.917969 259.640625 C 253.125 259.535156 253.277344 259.449219 253.382812 259.382812 C 253.453125 259.347656 253.523438 259.3125 253.59375 259.277344 C 255.121094 258.445312 256.945312 258.046875 259.0625 258.078125 C 261.117188 258.148438 262.886719 258.582031 264.378906 259.382812 C 264.519531 259.449219 264.640625 259.519531 264.742188 259.589844 C 264.78125 259.589844 264.796875 259.609375 264.796875 259.640625 Z M 243.636719 254.070312 C 239.574219 256.433594 237.558594 259.257812 237.597656 262.558594 C 237.558594 262.628906 237.558594 262.679688 237.597656 262.710938 C 237.628906 266.148438 239.730469 269.136719 243.898438 271.667969 L 243.851562 271.667969 C 248.019531 274.167969 253.039062 275.46875 258.910156 275.574219 C 264.742188 275.675781 269.714844 274.550781 273.8125 272.191406 C 277.875 269.792969 279.890625 266.898438 279.855469 263.492188 C 279.855469 263.179688 279.824219 262.886719 279.753906 262.609375 C 279.40625 259.589844 277.324219 256.953125 273.5 254.695312 L 273.554688 254.640625 C 270.878906 253.011719 267.820312 251.863281 264.378906 251.207031 C 262.539062 250.929688 260.59375 250.757812 258.542969 250.683594 C 256.808594 250.652344 255.15625 250.738281 253.59375 250.945312 C 249.84375 251.363281 246.523438 252.40625 243.636719 254.070312 Z M 264.953125 229.652344 L 247.445312 239.804688 C 249.320312 240.84375 251.023438 242.199219 252.550781 243.867188 L 271.101562 233.195312 Z M 202.003906 301.449219 L 210.082031 296.816406 C 209.765625 296.574219 209.457031 296.316406 209.144531 296.035156 C 207.859375 294.816406 206.730469 293.589844 205.757812 292.335938 L 169.332031 313.421875 L 175.378906 316.914062 L 202.054688 301.5 Z M 138.640625 207.371094 C 140.6875 206.152344 142.734375 204.957031 144.789062 203.777344 C 144.511719 203.328125 144.265625 202.804688 144.058594 202.214844 C 143.257812 199.820312 142.71875 198.378906 142.441406 197.890625 C 140.007812 199.316406 137.613281 200.738281 135.253906 202.164062 C 136.296875 203.863281 137.421875 205.601562 138.640625 207.371094 Z M 160.789062 100.742188 C 154.597656 104.175781 148.46875 107.664062 142.390625 111.203125 C 143.816406 113.078125 144.789062 114.871094 145.308594 116.570312 C 151.210938 113.238281 157.15625 109.886719 163.132812 106.519531 C 162.296875 104.542969 161.515625 102.613281 160.789062 100.742188 Z M 78.085938 234.390625 C 75.515625 235.953125 72.945312 237.480469 70.371094 238.96875 C 71.382812 240.671875 72.492188 242.40625 73.710938 244.175781 C 76.035156 242.828125 78.378906 241.433594 80.746094 240.011719 C 80.324219 239.390625 79.941406 238.710938 79.597656 237.980469 C 79.007812 236.871094 78.503906 235.675781 78.085938 234.390625 Z M 90.90625 234.023438 C 90.558594 233.472656 90.15625 232.796875 89.707031 231.996094 C 89.082031 230.746094 88.5625 229.550781 88.140625 228.402344 C 85.574219 229.894531 83.039062 231.386719 80.535156 232.882812 C 81.679688 233.960938 82.929688 235.621094 84.289062 237.878906 C 86.476562 236.59375 88.679688 235.308594 90.90625 234.023438 Z M 63.757812 203.304688 C 63.128906 201.433594 62.730469 200.117188 62.554688 199.351562 C 60.371094 200.636719 58.164062 201.957031 55.941406 203.304688 C 56.53125 205.21875 57.171875 207.160156 57.867188 209.140625 C 60.09375 207.890625 62.296875 206.589844 64.484375 205.234375 C 64.207031 204.714844 63.964844 204.070312 63.757812 203.304688 Z M 72.300781 208.304688 C 68.167969 210.667969 64.101562 213.042969 60.109375 215.441406 C 60.769531 217.316406 61.480469 219.273438 62.246094 221.320312 C 66.238281 218.925781 70.304688 216.550781 74.4375 214.191406 C 74.089844 213.457031 73.78125 212.644531 73.5 211.742188 C 72.976562 210.320312 72.578125 209.171875 72.300781 208.304688 Z M 106.539062 207.265625 C 105.808594 205.84375 105.304688 204.730469 105.023438 203.933594 C 91.128906 211.917969 77.652344 219.742188 64.589844 227.414062 C 65.457031 229.429688 66.363281 231.320312 67.296875 233.089844 C 76.679688 227.535156 86.074219 221.984375 95.492188 216.429688 C 99.621094 214.136719 103.722656 211.832031 107.789062 209.503906 C 107.371094 208.847656 106.953125 208.097656 106.539062 207.265625 Z M 113.574219 169.777344 C 111.867188 170.75 110.152344 171.707031 108.414062 172.640625 C 109.144531 174.132812 109.941406 176.097656 110.808594 178.527344 C 112.441406 177.519531 114.113281 176.546875 115.8125 175.609375 C 115.085938 173.632812 114.335938 171.6875 113.574219 169.777344 Z M 122.953125 193.78125 C 118.195312 196.488281 113.46875 199.195312 108.777344 201.902344 C 110.066406 203.535156 111.085938 205.265625 111.851562 207.109375 C 116.335938 204.574219 120.832031 202.023438 125.351562 199.453125 C 124.550781 197.441406 123.753906 195.550781 122.953125 193.78125 Z M 96.898438 193.886719 C 89.773438 198.015625 82.722656 202.109375 75.742188 206.167969 C 76.507812 207.039062 77.214844 208.152344 77.878906 209.503906 C 78.226562 210.195312 78.503906 210.910156 78.710938 211.636719 C 82.707031 209.277344 86.703125 206.917969 90.695312 204.558594 C 93.335938 202.996094 96.011719 201.46875 98.722656 199.976562 C 98.375 199.351562 98.078125 198.570312 97.835938 197.632812 C 97.351562 196.070312 97.039062 194.820312 96.898438 193.886719 Z M 102.679688 197.738281 C 108.585938 194.40625 114.527344 191.054688 120.503906 187.691406 C 119.667969 185.710938 118.886719 183.785156 118.160156 181.910156 C 111.976562 185.347656 105.84375 188.832031 99.765625 192.371094 C 101.1875 194.246094 102.160156 196.039062 102.679688 197.738281 Z M 89.707031 190.449219 C 95.578125 187.117188 101.5 183.785156 107.476562 180.449219 C 107.128906 179.652344 106.816406 178.679688 106.539062 177.539062 C 106.15625 176.046875 105.898438 174.949219 105.757812 174.253906 C 99.503906 177.796875 93.269531 181.390625 87.046875 185.035156 C 87.464844 185.730469 87.972656 186.683594 88.5625 187.898438 C 89.046875 188.902344 89.429688 189.753906 89.707031 190.449219 Z M 84.496094 186.542969 C 77.929688 190.289062 71.414062 194.09375 64.953125 197.945312 C 65.304688 198.671875 65.683594 199.597656 66.101562 200.703125 C 66.585938 201.78125 67.023438 202.753906 67.402344 203.621094 C 73.589844 199.90625 79.789062 196.277344 86.003906 192.738281 C 85.695312 192.011719 85.398438 191.175781 85.121094 190.242188 C 84.84375 188.609375 84.632812 187.378906 84.496094 186.542969 Z M 53.695312 197.007812 C 63.183594 191.382812 72.738281 185.800781 82.359375 180.242188 L 82.359375 180.140625 C 91.84375 174.652344 101.46875 169.136719 111.230469 163.582031 C 110.289062 161.636719 109.507812 159.746094 108.882812 157.90625 C 89.636719 168.808594 70.53125 179.914062 51.5625 191.230469 C 52.363281 193.207031 53.074219 195.132812 53.695312 197.007812 Z M 59.429688 119.171875 C 56.199219 121.148438 53.472656 123.84375 51.25 127.242188 C 48.957031 130.644531 47.445312 134.410156 46.714844 138.539062 L 46.402344 138.488281 C 45.289062 145.152344 46.246094 151.125 49.265625 156.398438 C 50.507812 158.613281 51.996094 160.488281 53.726562 162.019531 L 54.636719 162.800781 L 57.296875 164.417969 C 58.40625 165.074219 59.621094 165.597656 60.945312 165.976562 C 61.152344 166.015625 61.359375 166.0625 61.566406 166.132812 C 65.144531 167.035156 68.777344 166.933594 72.457031 165.824219 L 72.40625 165.769531 C 74.457031 165.179688 76.507812 164.191406 78.554688 162.800781 C 83.589844 159.46875 87.191406 154.800781 89.34375 148.796875 L 89.445312 148.796875 C 91.285156 143.277344 91.566406 137.863281 90.28125 132.550781 C 88.855469 127.3125 86.21875 123.179688 82.359375 120.160156 L 82.617188 119.902344 C 80.570312 118.300781 78.417969 117.210938 76.15625 116.621094 C 74.628906 116.132812 73.046875 115.859375 71.414062 115.789062 C 67.386719 115.683594 63.480469 116.742188 59.691406 118.964844 C 59.65625 118.996094 59.621094 119.035156 59.585938 119.066406 C 59.519531 119.105469 59.449219 119.121094 59.378906 119.121094 Z M 121.339844 130.46875 C 125.332031 128.109375 129.324219 125.75 133.324219 123.390625 C 135.960938 121.828125 138.640625 120.300781 141.347656 118.808594 C 141 118.183594 140.703125 117.402344 140.464844 116.464844 C 139.976562 114.902344 139.664062 113.652344 139.523438 112.71875 C 132.402344 116.847656 125.351562 120.941406 118.367188 125 C 119.132812 125.871094 119.84375 126.984375 120.503906 128.335938 C 120.851562 129.027344 121.128906 129.742188 121.339844 130.46875 Z M 104.871094 140.152344 C 108.863281 137.757812 112.929688 135.382812 117.0625 133.023438 C 116.71875 132.289062 116.402344 131.476562 116.128906 130.574219 C 115.605469 129.152344 115.207031 128.007812 114.925781 127.136719 C 110.792969 129.5 106.730469 131.875 102.734375 134.273438 C 103.394531 136.148438 104.105469 138.105469 104.871094 140.152344 Z M 103.984375 77.574219 L 103.984375 100.351562 C 100.03125 102.621094 96.136719 104.902344 92.3125 107.199219 C 92.972656 109.074219 93.683594 111.035156 94.449219 113.078125 C 97.683594 111.140625 100.96875 109.214844 104.296875 107.300781 C 104.480469 107.785156 104.742188 108.132812 105.078125 108.339844 L 105.132812 108.339844 L 110.132812 111.15625 C 110.167969 111.1875 110.21875 111.226562 110.289062 111.257812 L 110.316406 111.257812 C 105.757812 113.917969 101.25 116.554688 96.792969 119.171875 C 97.660156 121.1875 98.566406 123.078125 99.503906 124.847656 C 108.882812 119.292969 118.28125 113.738281 127.699219 108.1875 C 131.828125 105.894531 135.929688 103.585938 139.992188 101.261719 C 139.578125 100.601562 139.160156 99.855469 138.742188 99.023438 C 138.277344 98.113281 137.902344 97.335938 137.621094 96.679688 L 141.554688 94.414062 C 142.578125 95.824219 143.410156 97.308594 144.058594 98.867188 C 148.542969 96.332031 153.035156 93.78125 157.554688 91.210938 C 156.878906 89.507812 156.199219 87.894531 155.523438 86.371094 L 155.785156 86.214844 L 166.359375 92.332031 L 172.535156 107.558594 L 151.667969 119.535156 C 150.691406 120.128906 150.167969 120.71875 150.105469 121.308594 C 150.105469 121.378906 150.105469 121.445312 150.105469 121.515625 L 150.105469 127.816406 C 149.792969 127.296875 149.476562 126.722656 149.164062 126.097656 C 148.4375 124.671875 147.929688 123.5625 147.652344 122.765625 C 133.753906 130.75 120.28125 138.574219 107.214844 146.246094 C 108.082031 148.261719 108.988281 150.152344 109.925781 151.921875 C 119.308594 146.367188 128.703125 140.8125 138.121094 135.261719 C 142.144531 133.027344 146.140625 130.78125 150.105469 128.515625 L 150.105469 150.464844 L 148.957031 149.472656 C 149.339844 148.535156 149.371094 147.546875 149.0625 146.507812 C 148.75 145.1875 147.96875 144.214844 146.71875 143.589844 C 145.429688 142.929688 144.089844 142.847656 142.703125 143.328125 C 141.277344 143.78125 140.183594 144.648438 139.421875 145.933594 C 138.6875 147.183594 138.496094 148.484375 138.847656 149.839844 C 139.195312 151.15625 139.992188 152.148438 141.246094 152.808594 C 141.59375 152.910156 141.90625 153.03125 142.183594 153.167969 L 142.652344 173.734375 C 141.921875 174.015625 141.292969 174.414062 140.773438 174.933594 L 129.519531 168.839844 C 129.660156 168.183594 129.621094 167.523438 129.414062 166.863281 C 129 165.511719 128.199219 164.5 127.015625 163.84375 C 125.730469 163.21875 124.375 163.113281 122.953125 163.53125 C 121.53125 164.015625 120.449219 164.882812 119.722656 166.132812 C 118.957031 167.453125 118.75 168.773438 119.09375 170.089844 C 119.476562 171.445312 120.296875 172.433594 121.546875 173.058594 C 122.796875 173.71875 124.136719 173.824219 125.558594 173.371094 C 126.636719 172.992188 127.539062 172.378906 128.265625 171.550781 L 139.109375 177.484375 C 138.863281 178.351562 138.863281 179.253906 139.109375 180.191406 C 139.488281 181.542969 140.304688 182.53125 141.554688 183.160156 C 142.773438 183.816406 144.089844 183.90625 145.515625 183.417969 C 146.976562 183.003906 148.085938 182.15625 148.851562 180.871094 C 149.617188 179.585938 149.792969 178.25 149.371094 176.859375 C 149.027344 175.539062 148.246094 174.570312 147.027344 173.941406 C 146.574219 173.703125 146.105469 173.542969 145.621094 173.472656 L 145.203125 153.015625 C 145.96875 152.808594 146.628906 152.476562 147.1875 152.027344 L 150.105469 154.578125 L 150.105469 179.621094 C 150.105469 179.691406 150.105469 179.757812 150.105469 179.828125 L 150.105469 193.363281 C 148.445312 194.339844 146.789062 195.3125 145.152344 196.277344 C 145.882812 197.5625 146.871094 199.421875 148.121094 201.851562 C 148.78125 201.457031 149.441406 201.066406 150.105469 200.679688 L 150.105469 208.671875 C 147.648438 210.152344 145.21875 211.613281 142.808594 213.042969 C 144.230469 214.78125 145.65625 216.515625 147.078125 218.25 C 148.085938 217.648438 149.09375 217.050781 150.105469 216.453125 L 150.105469 225.953125 L 148.851562 225.226562 L 148.902344 225.226562 L 138.429688 219.1875 L 138.429688 219.238281 L 135.382812 217.492188 C 135.199219 217.273438 135.015625 217.054688 134.835938 216.84375 C 134.734375 216.898438 134.644531 216.953125 134.550781 217 L 131.394531 215.179688 C 129.207031 213.964844 127.054688 213.964844 124.933594 215.179688 L 100.441406 229.289062 C 99.46875 229.84375 98.945312 230.433594 98.878906 231.058594 C 98.878906 231.09375 98.878906 231.144531 98.878906 231.214844 L 98.878906 237.332031 C 91.648438 241.554688 84.648438 245.726562 77.878906 249.855469 C 79.300781 251.554688 80.726562 253.253906 82.148438 254.957031 C 87.734375 251.65625 93.308594 248.351562 98.878906 245.039062 L 98.878906 253.371094 C 94.878906 255.75 90.972656 258.101562 87.152344 260.421875 C 88.785156 262.121094 90.347656 263.839844 91.84375 265.574219 C 94.191406 264.121094 96.535156 262.667969 98.878906 261.226562 L 98.878906 269.640625 C 98.285156 270.019531 97.691406 270.398438 97.105469 270.78125 C 97.703125 271.375 98.292969 271.96875 98.878906 272.550781 L 98.878906 275.339844 L 93.613281 278.386719 C 92.402344 279.042969 91.757812 279.71875 91.6875 280.414062 C 91.621094 280.589844 91.597656 280.761719 91.636719 280.933594 C 91.84375 281.597656 92.503906 282.238281 93.613281 282.863281 L 123.734375 300.144531 C 126.339844 301.640625 128.945312 301.640625 131.550781 300.144531 L 134.417969 298.484375 L 152.710938 308.949219 L 187.464844 288.851562 L 163.652344 275.207031 L 160.238281 277.1875 L 157.609375 275.675781 L 157.609375 259.773438 L 175.167969 269.847656 C 177.773438 271.339844 180.378906 271.339844 182.984375 269.847656 L 192.207031 264.457031 L 192.207031 269.6875 L 182.097656 275.519531 L 210.707031 291.921875 L 211.332031 291.554688 C 212.414062 292.242188 213.558594 293.109375 214.769531 294.160156 L 228.738281 286.089844 L 224.777344 283.796875 L 238.742188 275.730469 L 229 270.132812 L 229 257.507812 L 244.421875 248.601562 L 244.371094 248.554688 L 248.066406 246.417969 C 247.199219 245.964844 246.195312 245.375 245.046875 244.648438 C 243.867188 243.988281 242.894531 243.417969 242.128906 242.929688 L 225.453125 252.558594 L 210.652344 243.761719 L 208.882812 244.804688 L 208.882812 236.058594 L 219.511719 242.148438 C 222.117188 243.640625 224.722656 243.640625 227.328125 242.148438 L 242.855469 233.089844 L 242.910156 233.089844 L 245.722656 231.527344 L 245.675781 231.472656 L 257.554688 224.605469 C 257.839844 224.433594 258.089844 224.265625 258.3125 224.105469 L 360.730469 283.175781 C 363.925781 284.945312 364.136719 286.664062 361.359375 288.328125 L 233.84375 361.894531 C 231.0625 363.457031 228.09375 363.320312 224.933594 361.480469 L 224.828125 361.480469 L 110.34375 295.460938 L 110.238281 295.460938 L 108.519531 294.371094 C 85.3125 279.582031 68.429688 260.976562 57.867188 238.554688 L 16.074219 135.050781 C 14.652344 131.40625 15.292969 128.769531 18 127.136719 Z M 333.816406 279.582031 C 332.503906 277.996094 330.671875 276.527344 328.316406 275.183594 L 330.453125 273.960938 L 324.253906 270.46875 L 321.28125 272.191406 C 318.140625 271.257812 314.707031 270.722656 310.992188 270.574219 L 317.742188 266.671875 L 311.640625 263.132812 L 297.261719 271.511719 C 297.457031 271.59375 297.65625 271.675781 297.863281 271.769531 C 294.765625 272.542969 291.925781 273.675781 289.339844 275.15625 C 287.359375 276.289062 285.742188 277.511719 284.496094 278.828125 L 273.554688 285.152344 C 274.28125 285.464844 275.0625 285.828125 275.898438 286.246094 C 277.492188 287.042969 278.867188 287.789062 280.015625 288.484375 L 281.417969 287.679688 C 281.703125 289.800781 282.660156 291.761719 284.285156 293.5625 L 270.949219 301.292969 L 277.09375 304.832031 L 289.546875 297.597656 C 291.921875 298.925781 294.511719 299.953125 297.3125 300.695312 L 283.660156 308.582031 L 289.707031 312.121094 L 307.058594 302.074219 L 307.003906 302.050781 C 307.613281 302.066406 308.21875 302.074219 308.828125 302.074219 C 316.4375 302.074219 322.917969 300.542969 328.269531 297.492188 C 333.652344 294.402344 336.34375 290.671875 336.34375 286.300781 C 336.34375 285.910156 336.324219 285.527344 336.292969 285.152344 L 343.015625 281.25 L 336.96875 277.757812 L 333.816406 279.582031 " fill-opacity="1" fill-rule="evenodd"/></g><path fill="#d6dff3" d="M 226.496094 347.214844 L 220.402344 343.671875 L 247.859375 327.847656 C 248.730469 328.574219 249.859375 329.476562 251.246094 330.554688 C 251.835938 331.039062 252.394531 331.492188 252.917969 331.90625 Z M 198.667969 316.757812 C 199.328125 317.347656 199.988281 317.867188 200.648438 318.320312 L 188.507812 325.296875 L 182.414062 321.804688 L 195.695312 314.101562 C 196.394531 314.761719 197.382812 315.644531 198.667969 316.757812 Z M 273.707031 312.851562 L 279.804688 316.339844 L 257.398438 329.300781 C 255.9375 328.191406 253.730469 327.132812 250.777344 326.128906 Z M 270.007812 287.289062 C 271.5 288.261719 273.429688 289.472656 275.792969 290.933594 L 264.378906 297.492188 L 258.335938 294.003906 Z M 248.382812 298.222656 L 254.53125 301.761719 L 233.429688 313.941406 C 232.59375 313.214844 231.464844 312.433594 230.039062 311.601562 C 229.167969 311.078125 228.355469 310.648438 227.589844 310.296875 Z M 235.773438 290.933594 L 241.867188 294.472656 L 215.136719 309.832031 L 215.191406 309.882812 L 205.183594 315.664062 C 204.175781 315.039062 202.90625 314.363281 201.378906 313.632812 C 200.371094 313.144531 199.46875 312.730469 198.667969 312.382812 Z M 202.003906 301.449219 L 202.054688 301.5 L 175.378906 316.914062 L 169.332031 313.421875 L 205.757812 292.335938 C 206.730469 293.589844 207.859375 294.816406 209.144531 296.035156 C 209.457031 296.316406 209.765625 296.574219 210.082031 296.816406 Z M 264.953125 229.652344 L 271.101562 233.195312 L 252.550781 243.867188 C 251.023438 242.199219 249.320312 240.84375 247.445312 239.804688 Z M 138.640625 207.371094 C 137.421875 205.601562 136.296875 203.863281 135.253906 202.164062 C 137.613281 200.738281 140.007812 199.316406 142.441406 197.890625 C 142.71875 198.378906 143.257812 199.820312 144.058594 202.214844 C 144.265625 202.804688 144.511719 203.328125 144.789062 203.777344 C 142.734375 204.957031 140.6875 206.152344 138.640625 207.371094 Z M 160.789062 100.742188 C 161.515625 102.613281 162.296875 104.542969 163.132812 106.519531 C 157.15625 109.886719 151.210938 113.238281 145.308594 116.570312 C 144.789062 114.871094 143.816406 113.078125 142.390625 111.203125 C 148.46875 107.664062 154.597656 104.175781 160.789062 100.742188 Z M 90.90625 234.023438 C 88.679688 235.308594 86.476562 236.59375 84.289062 237.878906 C 82.929688 235.621094 81.679688 233.960938 80.535156 232.882812 C 83.039062 231.386719 85.574219 229.894531 88.140625 228.402344 C 88.5625 229.550781 89.082031 230.746094 89.707031 231.996094 C 90.15625 232.796875 90.558594 233.472656 90.90625 234.023438 Z M 78.085938 234.390625 C 78.503906 235.675781 79.007812 236.871094 79.597656 237.980469 C 79.941406 238.710938 80.324219 239.390625 80.746094 240.011719 C 78.378906 241.433594 76.035156 242.828125 73.710938 244.175781 C 72.492188 242.40625 71.382812 240.671875 70.371094 238.96875 C 72.945312 237.480469 75.515625 235.953125 78.085938 234.390625 Z M 72.300781 208.304688 C 72.578125 209.171875 72.976562 210.320312 73.5 211.742188 C 73.78125 212.644531 74.089844 213.457031 74.4375 214.191406 C 70.304688 216.550781 66.238281 218.925781 62.246094 221.320312 C 61.480469 219.273438 60.769531 217.316406 60.109375 215.441406 C 64.101562 213.042969 68.167969 210.667969 72.300781 208.304688 Z M 102.679688 197.738281 C 102.160156 196.039062 101.1875 194.246094 99.765625 192.371094 C 105.84375 188.832031 111.976562 185.347656 118.160156 181.910156 C 118.886719 183.785156 119.667969 185.710938 120.503906 187.691406 C 114.527344 191.054688 108.585938 194.40625 102.679688 197.738281 Z M 96.898438 193.886719 C 97.039062 194.820312 97.351562 196.070312 97.835938 197.632812 C 98.078125 198.570312 98.375 199.351562 98.722656 199.976562 C 96.011719 201.46875 93.335938 202.996094 90.695312 204.558594 C 86.703125 206.917969 82.707031 209.277344 78.710938 211.636719 C 78.503906 210.910156 78.226562 210.195312 77.878906 209.503906 C 77.214844 208.152344 76.507812 207.039062 75.742188 206.167969 C 82.722656 202.109375 89.773438 198.015625 96.898438 193.886719 Z M 122.953125 193.78125 C 123.753906 195.550781 124.550781 197.441406 125.351562 199.453125 C 120.832031 202.023438 116.335938 204.574219 111.851562 207.109375 C 111.085938 205.265625 110.066406 203.535156 108.777344 201.902344 C 113.46875 199.195312 118.195312 196.488281 122.953125 193.78125 Z M 104.871094 140.152344 C 104.105469 138.105469 103.394531 136.148438 102.734375 134.273438 C 106.730469 131.875 110.792969 129.5 114.925781 127.136719 C 115.207031 128.007812 115.605469 129.152344 116.128906 130.574219 C 116.402344 131.476562 116.71875 132.289062 117.0625 133.023438 C 112.929688 135.382812 108.863281 137.757812 104.871094 140.152344 Z M 121.339844 130.46875 C 121.128906 129.742188 120.851562 129.027344 120.503906 128.335938 C 119.84375 126.984375 119.132812 125.871094 118.367188 125 C 125.351562 120.941406 132.402344 116.847656 139.523438 112.71875 C 139.664062 113.652344 139.976562 114.902344 140.464844 116.464844 C 140.703125 117.402344 141 118.183594 141.347656 118.808594 C 138.640625 120.300781 135.960938 121.828125 133.324219 123.390625 C 129.324219 125.75 125.332031 128.109375 121.339844 130.46875 Z M 103.984375 100.351562 L 103.984375 105.0625 C 103.984375 105.988281 104.089844 106.734375 104.296875 107.300781 C 100.96875 109.214844 97.683594 111.140625 94.449219 113.078125 C 93.683594 111.035156 92.972656 109.074219 92.3125 107.199219 C 96.136719 104.902344 100.03125 102.621094 103.984375 100.351562 Z M 141.554688 94.414062 L 155.523438 86.371094 C 156.199219 87.894531 156.878906 89.507812 157.554688 91.210938 C 153.035156 93.78125 148.542969 96.332031 144.058594 98.867188 C 143.410156 97.308594 142.578125 95.824219 141.554688 94.414062 Z M 150.105469 193.363281 L 150.105469 200.679688 C 149.441406 201.066406 148.78125 201.457031 148.121094 201.851562 C 146.871094 199.421875 145.882812 197.5625 145.152344 196.277344 C 146.789062 195.3125 148.445312 194.339844 150.105469 193.363281 Z M 150.105469 208.671875 L 150.105469 216.453125 C 149.09375 217.050781 148.085938 217.648438 147.078125 218.25 C 145.65625 216.515625 144.230469 214.78125 142.808594 213.042969 C 145.21875 211.613281 147.648438 210.152344 150.105469 208.671875 Z M 135.382812 217.492188 L 134.550781 217 C 134.644531 216.953125 134.734375 216.898438 134.835938 216.84375 C 135.015625 217.054688 135.199219 217.273438 135.382812 217.492188 Z M 98.878906 253.371094 L 98.878906 261.226562 C 96.535156 262.667969 94.191406 264.121094 91.84375 265.574219 C 90.347656 263.839844 88.785156 262.121094 87.152344 260.421875 C 90.972656 258.101562 94.878906 255.75 98.878906 253.371094 Z M 98.878906 272.550781 C 98.292969 271.96875 97.703125 271.375 97.105469 270.78125 C 97.691406 270.398438 98.285156 270.019531 98.878906 269.640625 Z M 211.332031 291.554688 L 224.777344 283.796875 L 228.738281 286.089844 L 214.769531 294.160156 C 213.558594 293.109375 212.414062 292.242188 211.332031 291.554688 Z M 333.816406 279.582031 L 336.96875 277.757812 L 343.015625 281.25 L 336.292969 285.152344 C 336.066406 283.152344 335.238281 281.292969 333.816406 279.582031 Z M 284.285156 293.5625 C 285.558594 294.972656 287.242188 296.28125 289.339844 297.492188 C 289.40625 297.53125 289.476562 297.566406 289.546875 297.597656 L 277.09375 304.832031 L 270.949219 301.292969 Z M 281.417969 287.679688 L 280.015625 288.484375 C 278.867188 287.789062 277.492188 287.042969 275.898438 286.246094 C 275.0625 285.828125 274.28125 285.464844 273.554688 285.152344 L 284.496094 278.828125 C 282.375 281.054688 281.316406 283.546875 281.316406 286.300781 C 281.316406 286.769531 281.347656 287.226562 281.417969 287.679688 Z M 297.3125 300.695312 C 300.300781 301.480469 303.527344 301.933594 307.003906 302.050781 L 307.058594 302.074219 L 289.707031 312.121094 L 283.660156 308.582031 Z M 297.863281 271.769531 C 297.65625 271.675781 297.457031 271.59375 297.261719 271.511719 L 311.640625 263.132812 L 317.742188 266.671875 L 310.992188 270.574219 C 310.28125 270.542969 309.5625 270.523438 308.828125 270.523438 C 304.875 270.523438 301.21875 270.941406 297.863281 271.769531 Z M 321.28125 272.191406 L 324.253906 270.46875 L 330.453125 273.960938 L 328.316406 275.183594 L 328.269531 275.15625 C 326.125 273.917969 323.792969 272.929688 321.28125 272.191406 " fill-opacity="1" fill-rule="evenodd"/><path fill="#f13ea7" d="M 218.730469 330.035156 C 219.148438 330.65625 219.652344 331.316406 220.242188 332.011719 C 221.113281 333.085938 221.980469 334.007812 222.847656 334.769531 L 213.832031 339.925781 L 207.734375 336.382812 Z M 261.046875 305.5625 L 267.195312 309.050781 L 240.464844 324.460938 L 240.511719 324.515625 L 227.746094 331.90625 C 227.015625 331.246094 226.148438 330.503906 225.140625 329.667969 C 224.203125 328.941406 223.367188 328.3125 222.640625 327.792969 Z M 273.5 254.695312 L 264.796875 259.640625 C 264.796875 259.609375 264.78125 259.589844 264.742188 259.589844 C 264.640625 259.519531 264.519531 259.449219 264.378906 259.382812 C 262.886719 258.582031 261.117188 258.148438 259.0625 258.078125 C 256.945312 258.046875 255.121094 258.445312 253.59375 259.277344 C 253.523438 259.3125 253.453125 259.347656 253.382812 259.382812 C 253.277344 259.449219 253.125 259.535156 252.917969 259.640625 L 243.636719 254.070312 C 246.523438 252.40625 249.84375 251.363281 253.59375 250.945312 C 255.15625 250.738281 256.808594 250.652344 258.542969 250.683594 C 260.59375 250.757812 262.539062 250.929688 264.378906 251.207031 C 267.820312 251.863281 270.878906 253.011719 273.554688 254.640625 Z M 68.5 141.351562 L 52.292969 160.511719 C 52.75 161.050781 53.222656 161.558594 53.726562 162.019531 C 51.996094 160.488281 50.507812 158.613281 49.265625 156.398438 C 46.246094 151.125 45.289062 145.152344 46.402344 138.488281 L 46.714844 138.539062 C 46.714844 138.644531 46.730469 138.730469 46.769531 138.796875 L 68.445312 141.300781 Z M 69.460938 140.050781 L 82.359375 120.160156 C 86.21875 123.179688 88.855469 127.3125 90.28125 132.550781 C 91.566406 137.863281 91.285156 143.277344 89.445312 148.796875 L 89.34375 148.796875 L 68.761719 142.027344 L 68.761719 141.300781 L 68.601562 141.246094 L 68.707031 141.246094 L 68.707031 141.09375 L 68.761719 141.246094 L 68.808594 141.09375 Z M 134.3125 82.933594 L 126.3125 78.457031 L 126.289062 78.457031 L 126.339844 78.402344 L 126.339844 66.066406 L 126.289062 65.910156 C 129.171875 64.277344 131.65625 63.914062 133.738281 64.816406 C 133.949219 64.917969 134.15625 65.007812 134.367188 65.078125 L 134.574219 65.179688 C 136.621094 66.464844 137.648438 68.773438 137.648438 72.105469 C 137.648438 75.609375 136.554688 79.222656 134.367188 82.933594 Z M 110.316406 111.257812 C 111.042969 111.597656 112.125 111.355469 113.574219 110.527344 L 137.621094 96.679688 C 137.902344 97.335938 138.277344 98.113281 138.742188 99.023438 C 139.160156 99.855469 139.578125 100.601562 139.992188 101.261719 C 135.929688 103.585938 131.828125 105.894531 127.699219 108.1875 C 118.28125 113.738281 108.882812 119.292969 99.503906 124.847656 C 98.566406 123.078125 97.660156 121.1875 96.792969 119.171875 C 101.25 116.554688 105.757812 113.917969 110.316406 111.257812 Z M 98.878906 237.332031 L 98.878906 245.039062 C 93.308594 248.351562 87.734375 251.65625 82.148438 254.957031 C 80.726562 253.253906 79.300781 251.554688 77.878906 249.855469 C 84.648438 245.726562 91.648438 241.554688 98.878906 237.332031 Z M 229 257.507812 L 229 254.640625 L 210.601562 265.421875 L 192.207031 254.640625 L 208.882812 244.804688 L 210.652344 243.761719 L 225.453125 252.558594 L 242.128906 242.929688 C 242.894531 243.417969 243.867188 243.988281 245.046875 244.648438 C 246.195312 245.375 247.199219 245.964844 248.066406 246.417969 L 244.371094 248.554688 L 244.421875 248.601562 L 229 257.507812 " fill-opacity="1" fill-rule="evenodd"/><path fill="#9cc1e9" d="M 227.222656 314.257812 C 228.058594 314.984375 228.808594 315.628906 229.46875 316.183594 L 227.796875 317.171875 L 227.851562 317.226562 L 201.167969 332.585938 L 195.074219 329.09375 L 224.671875 312.019531 C 225.332031 312.609375 226.179688 313.351562 227.222656 314.257812 Z M 106.539062 207.265625 C 106.953125 208.097656 107.371094 208.847656 107.789062 209.503906 C 103.722656 211.832031 99.621094 214.136719 95.492188 216.429688 C 86.074219 221.984375 76.679688 227.535156 67.296875 233.089844 C 66.363281 231.320312 65.457031 229.429688 64.589844 227.414062 C 77.652344 219.742188 91.128906 211.917969 105.023438 203.933594 C 105.304688 204.730469 105.808594 205.84375 106.539062 207.265625 Z M 150.105469 127.816406 L 150.105469 128.515625 C 146.140625 130.78125 142.144531 133.027344 138.121094 135.261719 C 128.703125 140.8125 119.308594 146.367188 109.925781 151.921875 C 108.988281 150.152344 108.082031 148.261719 107.214844 146.246094 C 120.28125 138.574219 133.753906 130.75 147.652344 122.765625 C 147.929688 123.5625 148.4375 124.671875 149.164062 126.097656 C 149.476562 126.722656 149.792969 127.296875 150.105469 127.816406 " fill-opacity="1" fill-rule="evenodd"/><path fill="#cdccca" d="M 63.757812 203.304688 C 63.964844 204.070312 64.207031 204.714844 64.484375 205.234375 C 62.296875 206.589844 60.09375 207.890625 57.867188 209.140625 C 57.171875 207.160156 56.53125 205.21875 55.941406 203.304688 C 58.164062 201.957031 60.371094 200.636719 62.554688 199.351562 C 62.730469 200.117188 63.128906 201.433594 63.757812 203.304688 Z M 113.574219 169.777344 C 114.335938 171.6875 115.085938 173.632812 115.8125 175.609375 C 114.113281 176.546875 112.441406 177.519531 110.808594 178.527344 C 109.941406 176.097656 109.144531 174.132812 108.414062 172.640625 C 110.152344 171.707031 111.867188 170.75 113.574219 169.777344 Z M 84.496094 186.542969 C 84.632812 187.378906 84.84375 188.609375 85.121094 190.242188 C 85.398438 191.175781 85.695312 192.011719 86.003906 192.738281 C 79.789062 196.277344 73.589844 199.90625 67.402344 203.621094 C 67.023438 202.753906 66.585938 201.78125 66.101562 200.703125 C 65.683594 199.597656 65.304688 198.671875 64.953125 197.945312 C 71.414062 194.09375 77.929688 190.289062 84.496094 186.542969 Z M 89.707031 190.449219 C 89.429688 189.753906 89.046875 188.902344 88.5625 187.898438 C 87.972656 186.683594 87.464844 185.730469 87.046875 185.035156 C 93.269531 181.390625 99.503906 177.796875 105.757812 174.253906 C 105.898438 174.949219 106.15625 176.046875 106.539062 177.539062 C 106.816406 178.679688 107.128906 179.652344 107.476562 180.449219 C 101.5 183.785156 95.578125 187.117188 89.707031 190.449219 " fill-opacity="1" fill-rule="evenodd"/><path fill="#959595" d="M 53.695312 197.007812 C 53.074219 195.132812 52.363281 193.207031 51.5625 191.230469 C 70.53125 179.914062 89.636719 168.808594 108.882812 157.90625 C 109.507812 159.746094 110.289062 161.636719 111.230469 163.582031 C 101.46875 169.136719 91.84375 174.652344 82.359375 180.140625 L 82.359375 180.242188 C 72.738281 185.800781 63.183594 191.382812 53.695312 197.007812 " fill-opacity="1" fill-rule="evenodd"/><path fill="#ef277b" d="M 150.105469 150.464844 L 150.105469 154.578125 L 147.1875 152.027344 C 146.628906 152.476562 145.96875 152.808594 145.203125 153.015625 L 145.621094 173.472656 C 146.105469 173.542969 146.574219 173.703125 147.027344 173.941406 C 148.246094 174.570312 149.027344 175.539062 149.371094 176.859375 C 149.792969 178.25 149.617188 179.585938 148.851562 180.871094 C 148.085938 182.15625 146.976562 183.003906 145.515625 183.417969 C 144.089844 183.90625 142.773438 183.816406 141.554688 183.160156 C 140.304688 182.53125 139.488281 181.542969 139.109375 180.191406 C 138.863281 179.253906 138.863281 178.351562 139.109375 177.484375 L 128.265625 171.550781 C 127.539062 172.378906 126.636719 172.992188 125.558594 173.371094 C 124.136719 173.824219 122.796875 173.71875 121.546875 173.058594 C 120.296875 172.433594 119.476562 171.445312 119.09375 170.089844 C 118.75 168.773438 118.957031 167.453125 119.722656 166.132812 C 120.449219 164.882812 121.53125 164.015625 122.953125 163.53125 C 124.375 163.113281 125.730469 163.21875 127.015625 163.84375 C 128.199219 164.5 129 165.511719 129.414062 166.863281 C 129.621094 167.523438 129.660156 168.183594 129.519531 168.839844 L 140.773438 174.933594 C 141.292969 174.414062 141.921875 174.015625 142.652344 173.734375 L 142.183594 153.167969 C 141.90625 153.03125 141.59375 152.910156 141.246094 152.808594 C 139.992188 152.148438 139.195312 151.15625 138.847656 149.839844 C 138.496094 148.484375 138.6875 147.183594 139.421875 145.933594 C 140.183594 144.648438 141.277344 143.78125 142.703125 143.328125 C 144.089844 142.847656 145.429688 142.929688 146.71875 143.589844 C 147.96875 144.214844 148.75 145.1875 149.0625 146.507812 C 149.371094 147.546875 149.339844 148.535156 148.957031 149.472656 L 150.105469 150.464844 " fill-opacity="1" fill-rule="evenodd"/><path fill="#fbd01c" d="M 143.539062 69.867188 L 180.636719 48.625 L 180.636719 44.71875 L 143.539062 65.910156 Z M 118.625 91.839844 C 120.78125 92.914062 123.386719 92.621094 126.445312 90.953125 C 129.539062 89.21875 132.160156 86.542969 134.3125 82.933594 L 134.367188 82.933594 C 136.554688 79.222656 137.648438 75.609375 137.648438 72.105469 C 137.648438 68.773438 136.621094 66.464844 134.574219 65.179688 L 134.367188 65.078125 L 133.792969 64.765625 L 133.738281 64.816406 C 131.65625 63.914062 129.171875 64.277344 126.289062 65.910156 L 126.339844 66.066406 C 123.316406 67.800781 120.710938 70.476562 118.523438 74.085938 C 116.335938 77.765625 115.257812 81.335938 115.292969 84.808594 C 115.257812 88.179688 116.25 90.484375 118.265625 91.734375 C 118.367188 91.769531 118.472656 91.824219 118.574219 91.890625 Z M 166.308594 60.078125 L 143.378906 73.148438 L 143.378906 77.054688 L 166.308594 64.039062 Z M 180.636719 36.753906 L 143.539062 57.945312 L 143.539062 61.953125 L 180.636719 40.65625 Z M 137.621094 96.679688 L 113.574219 110.527344 C 112.125 111.355469 111.042969 111.597656 110.316406 111.257812 L 110.289062 111.257812 C 110.21875 111.226562 110.167969 111.1875 110.132812 111.15625 C 109.40625 110.703125 109.039062 109.640625 109.039062 107.980469 L 109.039062 67.835938 C 109.039062 64.367188 110.550781 61.761719 113.574219 60.027344 L 184.859375 18.894531 C 186.339844 18.03125 187.460938 17.808594 188.222656 18.21875 L 188.300781 18.21875 C 189.027344 18.671875 189.394531 19.761719 189.394531 21.5 L 189.394531 61.640625 C 189.394531 65.078125 187.882812 67.683594 184.859375 69.449219 L 176.421875 74.292969 L 176.421875 98.140625 L 166.359375 92.332031 L 155.785156 86.214844 L 155.523438 86.371094 L 141.554688 94.414062 L 137.621094 96.679688 " fill-opacity="1" fill-rule="evenodd"/><path fill="#f25c19" d="M 104.296875 107.300781 C 104.089844 106.734375 103.984375 105.988281 103.984375 105.0625 L 103.984375 64.917969 C 103.984375 61.484375 105.496094 58.878906 108.519531 57.109375 L 179.808594 16.03125 C 181.296875 15.164062 182.429688 14.9375 183.195312 15.355469 L 188.222656 18.21875 C 187.460938 17.808594 186.339844 18.03125 184.859375 18.894531 L 113.574219 60.027344 C 110.550781 61.761719 109.039062 64.367188 109.039062 67.835938 L 109.039062 107.980469 C 109.039062 109.640625 109.40625 110.703125 110.132812 111.15625 L 105.132812 108.339844 L 105.078125 108.339844 C 104.742188 108.132812 104.480469 107.785156 104.296875 107.300781 " fill-opacity="1" fill-rule="evenodd"/><path fill="#ffffff" d="M 134.3125 82.933594 C 132.160156 86.542969 129.539062 89.21875 126.445312 90.953125 C 123.386719 92.621094 120.78125 92.914062 118.625 91.839844 C 118.558594 91.800781 118.488281 91.769531 118.417969 91.734375 L 126.3125 78.457031 Z M 143.539062 69.867188 L 143.539062 65.910156 L 180.636719 44.71875 L 180.636719 48.625 Z M 180.636719 36.753906 L 180.636719 40.65625 L 143.539062 61.953125 L 143.539062 57.945312 Z M 166.308594 60.078125 L 166.308594 64.039062 L 143.378906 77.054688 L 143.378906 73.148438 L 166.308594 60.078125 " fill-opacity="1" fill-rule="evenodd"/><g clip-path="url(#95fcd51f41)"><g clip-path="url(#3ee0c2f6b5)"><path fill="#59812b" d="M 133.605469 65 L 134.210938 65.347656 L 134.5 64.84375 L 133.894531 64.492188 Z M 133.605469 65 " fill-opacity="1" fill-rule="nonzero"/></g></g><path fill="#97bce7" d="M 273.8125 272.191406 L 264.328125 266.515625 C 264.503906 266.441406 264.671875 266.378906 264.847656 266.304688 C 266.414062 265.402344 267.195312 264.292969 267.195312 262.972656 C 267.160156 261.691406 266.359375 260.578125 264.796875 259.640625 L 273.5 254.695312 C 277.324219 256.953125 279.40625 259.589844 279.753906 262.609375 C 279.824219 262.886719 279.855469 263.179688 279.855469 263.492188 C 279.890625 266.898438 277.875 269.792969 273.8125 272.191406 Z M 59.429688 119.171875 L 68.445312 141.300781 L 46.769531 138.796875 C 46.730469 138.730469 46.714844 138.644531 46.714844 138.539062 C 47.445312 134.410156 48.957031 130.644531 51.25 127.242188 C 53.472656 123.84375 56.199219 121.148438 59.429688 119.171875 Z M 72.40625 165.769531 L 68.761719 142.027344 L 89.34375 148.796875 C 87.191406 154.800781 83.589844 159.46875 78.554688 162.800781 C 76.507812 164.191406 74.457031 165.179688 72.40625 165.769531 Z M 126.3125 78.457031 L 118.417969 91.734375 C 118.488281 91.769531 118.558594 91.800781 118.625 91.839844 L 118.574219 91.890625 C 118.472656 91.824219 118.367188 91.769531 118.265625 91.734375 C 116.25 90.484375 115.257812 88.179688 115.292969 84.808594 C 115.257812 81.335938 116.335938 77.765625 118.523438 74.085938 C 120.710938 70.476562 123.316406 67.800781 126.339844 66.066406 L 126.339844 78.402344 L 126.289062 78.457031 L 126.3125 78.457031 " fill-opacity="1" fill-rule="evenodd"/><path fill="#968bcd" d="M 253.539062 266.148438 L 243.898438 271.667969 C 239.730469 269.136719 237.628906 266.148438 237.597656 262.710938 C 237.558594 262.679688 237.558594 262.628906 237.597656 262.558594 C 237.558594 259.257812 239.574219 256.433594 243.636719 254.070312 L 252.917969 259.640625 C 251.667969 260.476562 251.054688 261.480469 251.09375 262.660156 C 251.09375 263.980469 251.890625 265.109375 253.492188 266.042969 C 253.523438 266.082031 253.539062 266.117188 253.539062 266.148438 Z M 68.761719 142.027344 L 72.40625 165.769531 L 72.457031 165.824219 C 68.777344 166.933594 65.144531 167.035156 61.566406 166.132812 C 61.359375 166.0625 61.152344 166.015625 60.945312 165.976562 C 59.621094 165.597656 58.40625 165.074219 57.296875 164.417969 L 54.636719 162.800781 L 53.726562 162.019531 C 53.222656 161.558594 52.75 161.050781 52.292969 160.511719 L 68.5 141.351562 L 68.652344 141.09375 L 68.707031 141.246094 L 68.601562 141.246094 L 68.761719 141.351562 L 68.761719 142.027344 " fill-opacity="1" fill-rule="evenodd"/><path fill="#fbc907" d="M 264.328125 266.515625 L 273.8125 272.191406 C 269.714844 274.550781 264.742188 275.675781 258.910156 275.574219 C 253.039062 275.46875 248.019531 274.167969 243.851562 271.667969 L 243.898438 271.667969 L 253.539062 266.148438 C 255.140625 267.019531 257.03125 267.46875 259.222656 267.503906 C 261.167969 267.574219 262.871094 267.242188 264.328125 266.515625 Z M 82.359375 120.160156 L 69.460938 140.050781 L 68.808594 141.039062 L 68.707031 141.09375 L 68.707031 141.246094 L 68.652344 141.09375 L 68.5 141.351562 L 68.445312 141.300781 L 59.429688 119.171875 L 59.378906 119.121094 C 59.449219 119.121094 59.519531 119.105469 59.585938 119.066406 C 59.621094 119.035156 59.65625 118.996094 59.691406 118.964844 C 63.480469 116.742188 67.386719 115.683594 71.414062 115.789062 C 73.046875 115.859375 74.628906 116.132812 76.15625 116.621094 C 78.417969 117.210938 80.570312 118.300781 82.617188 119.902344 L 82.359375 120.160156 " fill-opacity="1" fill-rule="evenodd"/><g clip-path="url(#5ee212cf84)"><g clip-path="url(#932c3dda8f)"><g clip-path="url(#4676bb62ad)"><path fill="url(#6bf46abde1)" d="M 68.519531 140.992188 L 69.398438 141.296875 L 69.75 140.152344 L 68.871094 139.847656 Z M 68.519531 140.992188 " fill-rule="nonzero"/></g></g></g><path fill="#fac009" d="M 68.601562 141.246094 L 68.761719 141.300781 L 68.761719 141.351562 Z M 68.808594 141.039062 L 68.808594 141.09375 L 68.761719 141.246094 L 68.707031 141.09375 L 68.808594 141.039062 " fill-opacity="1" fill-rule="evenodd"/><path fill="#cee1f5" d="M 253.125 121.800781 C 253.160156 121.933594 253.175781 122.066406 253.175781 122.191406 L 253.175781 122.242188 C 253.164062 122.296875 253.144531 122.347656 253.125 122.398438 Z M 253.175781 38.941406 C 253.039062 39.496094 252.496094 40.019531 251.5625 40.503906 L 227.015625 54.664062 C 224.898438 55.878906 222.777344 55.898438 220.660156 54.714844 L 207.941406 47.375 L 207.894531 47.375 L 205.703125 46.074219 L 205.757812 46.023438 L 195.957031 40.449219 C 194.921875 39.832031 194.402344 39.289062 194.394531 38.835938 L 194.394531 38.679688 C 194.394531 38.609375 194.394531 38.542969 194.394531 38.472656 C 194.46875 37.882812 194.988281 37.308594 195.957031 36.753906 L 220.449219 22.59375 C 222.570312 21.414062 224.722656 21.414062 226.914062 22.59375 L 233.949219 26.707031 L 233.949219 26.652344 L 244.472656 32.691406 L 244.421875 32.691406 L 251.5625 36.910156 C 252.535156 37.429688 253.054688 37.953125 253.125 38.472656 C 253.160156 38.609375 253.175781 38.75 253.175781 38.886719 Z M 131.214844 296.632812 L 134.417969 298.484375 L 131.550781 300.144531 C 128.945312 301.640625 126.339844 301.640625 123.734375 300.144531 L 93.613281 282.863281 C 92.503906 282.238281 91.84375 281.597656 91.636719 280.933594 C 91.597656 280.761719 91.621094 280.589844 91.6875 280.414062 C 91.757812 279.71875 92.402344 279.042969 93.613281 278.386719 L 98.878906 275.339844 L 98.878906 280.363281 C 98.878906 281.019531 99.398438 281.664062 100.441406 282.289062 L 125.195312 296.398438 C 127.199219 297.617188 129.207031 297.695312 131.214844 296.632812 Z M 157.609375 259.773438 L 157.609375 255.320312 L 176.46875 266.042969 C 178.589844 267.328125 180.707031 267.34375 182.828125 266.097656 L 192.207031 260.683594 L 192.207031 264.457031 L 182.984375 269.847656 C 180.378906 271.339844 177.773438 271.339844 175.167969 269.847656 Z M 157.609375 275.675781 L 160.238281 277.1875 L 157.632812 278.699219 L 157.660156 276.507812 L 157.609375 276.5625 C 157.675781 276.320312 157.675781 276.132812 157.609375 275.988281 Z M 253.125 217.523438 L 257.554688 220.074219 C 258.910156 220.871094 259.570312 221.652344 259.53125 222.414062 C 259.507812 222.957031 259.101562 223.519531 258.3125 224.105469 C 258.089844 224.265625 257.839844 224.433594 257.554688 224.605469 L 245.675781 231.472656 L 245.722656 231.527344 L 242.910156 233.089844 L 242.855469 233.089844 L 227.328125 242.148438 C 224.722656 243.640625 222.117188 243.640625 219.511719 242.148438 L 208.882812 236.058594 L 208.882812 231.710938 L 220.710938 238.449219 C 222.832031 239.734375 224.953125 239.75 227.070312 238.503906 L 251.613281 224.390625 C 252.863281 223.664062 253.367188 222.953125 253.125 222.261719 L 253.175781 218.511719 L 253.125 218.5625 C 253.191406 218.355469 253.191406 218.164062 253.125 217.988281 Z M 307.003906 302.050781 C 303.527344 301.933594 300.300781 301.480469 297.3125 300.695312 C 294.511719 299.953125 291.921875 298.925781 289.546875 297.597656 C 289.476562 297.566406 289.40625 297.53125 289.339844 297.492188 C 287.242188 296.28125 285.558594 294.972656 284.285156 293.5625 C 282.660156 291.761719 281.703125 289.800781 281.417969 287.679688 C 281.347656 287.226562 281.316406 286.769531 281.316406 286.300781 C 281.316406 283.546875 282.375 281.054688 284.496094 278.828125 C 285.742188 277.511719 287.359375 276.289062 289.339844 275.15625 C 291.925781 273.675781 294.765625 272.542969 297.863281 271.769531 C 301.21875 270.941406 304.875 270.523438 308.828125 270.523438 C 309.5625 270.523438 310.28125 270.542969 310.992188 270.574219 C 314.707031 270.722656 318.140625 271.257812 321.28125 272.191406 C 323.792969 272.929688 326.125 273.917969 328.269531 275.15625 L 328.316406 275.183594 C 330.671875 276.527344 332.503906 277.996094 333.816406 279.582031 C 335.238281 281.292969 336.066406 283.152344 336.292969 285.152344 C 336.324219 285.527344 336.34375 285.910156 336.34375 286.300781 C 336.34375 290.671875 333.652344 294.402344 328.269531 297.492188 C 322.917969 300.542969 316.4375 302.074219 308.828125 302.074219 C 308.21875 302.074219 307.613281 302.066406 307.003906 302.050781 " fill-opacity="1" fill-rule="evenodd"/><g clip-path="url(#9cfeb8f94d)"><g clip-path="url(#ed0e8fb248)"><path fill="url(#9f5837f5a4)" d="M 194.394531 38.835938 L 194.394531 156.453125 L 253.175781 156.453125 L 253.175781 38.835938 Z M 194.394531 38.835938 " fill-rule="nonzero"/></g></g><path fill="#fae146" d="M 150.105469 225.953125 L 156.042969 229.390625 C 157.015625 229.949219 157.539062 230.5 157.609375 231.058594 L 157.609375 231.113281 C 157.640625 231.214844 157.660156 231.320312 157.660156 231.421875 L 157.660156 231.472656 C 157.660156 231.511719 157.640625 231.542969 157.609375 231.578125 C 157.433594 232.101562 156.910156 232.585938 156.042969 233.035156 L 131.5 247.199219 C 129.378906 248.414062 127.261719 248.429688 125.140625 247.25 L 112.480469 239.910156 L 112.375 239.910156 L 110.1875 238.609375 L 110.1875 238.554688 L 100.441406 233.035156 C 99.40625 232.378906 98.886719 231.84375 98.878906 231.421875 L 98.878906 231.214844 C 98.878906 231.144531 98.878906 231.09375 98.878906 231.058594 C 98.945312 230.433594 99.46875 229.84375 100.441406 229.289062 L 124.933594 215.179688 C 127.054688 213.964844 129.207031 213.964844 131.394531 215.179688 L 134.550781 217 L 135.382812 217.492188 L 138.429688 219.238281 L 138.429688 219.1875 L 148.902344 225.226562 L 148.851562 225.226562 L 150.105469 225.953125 " fill-opacity="1" fill-rule="evenodd"/><g clip-path="url(#824bd7fdf0)"><g clip-path="url(#5708adf514)"><path fill="url(#333795d9e2)" d="M 98.878906 231.421875 L 98.878906 297.695312 L 157.847656 297.695312 L 157.847656 231.421875 Z M 98.878906 231.421875 " fill-rule="nonzero"/></g></g><path fill="#d2e1f5" d="M 157.632812 278.699219 L 160.238281 277.1875 L 163.652344 275.207031 L 187.464844 288.851562 L 152.710938 308.949219 L 134.417969 298.484375 L 131.214844 296.632812 C 131.324219 296.578125 131.4375 296.519531 131.550781 296.453125 L 156.097656 282.34375 C 157.347656 281.613281 157.847656 280.902344 157.609375 280.207031 Z M 224.777344 283.796875 L 211.332031 291.554688 L 210.707031 291.921875 L 182.097656 275.519531 L 192.207031 269.6875 L 192.207031 275.367188 L 210.601562 286.195312 L 210.652344 286.195312 L 229 275.367188 L 229 270.132812 L 238.742188 275.730469 L 224.777344 283.796875 " fill-opacity="1" fill-rule="evenodd"/><g clip-path="url(#14c72fbfec)"><g clip-path="url(#96d382359a)"><path fill="url(#c7455dcc1a)" d="M 208.882812 122.242188 L 208.882812 239.75 L 253.367188 239.75 L 253.367188 122.242188 Z M 208.882812 122.242188 " fill-rule="nonzero"/></g></g><path fill="#e2dcf1" d="M 208.882812 179.773438 C 208.914062 179.84375 208.9375 179.929688 208.9375 180.035156 L 208.9375 180.089844 L 208.882812 180.140625 Z M 208.882812 121.828125 C 208.707031 122.3125 208.171875 122.816406 207.265625 123.339844 L 182.773438 137.496094 C 180.65625 138.714844 178.519531 138.730469 176.367188 137.550781 L 163.703125 130.160156 L 163.652344 130.160156 L 161.410156 128.90625 L 161.464844 128.859375 L 151.667969 123.285156 C 150.628906 122.667969 150.109375 122.144531 150.105469 121.722656 L 150.105469 121.515625 C 150.105469 121.445312 150.105469 121.378906 150.105469 121.308594 C 150.167969 120.71875 150.691406 120.128906 151.667969 119.535156 L 172.535156 107.558594 L 176.160156 105.476562 C 178.308594 104.230469 180.46875 104.230469 182.621094 105.476562 L 189.703125 109.539062 L 189.703125 109.488281 L 194.394531 112.195312 L 200.179688 115.527344 L 200.125 115.527344 L 207.265625 119.695312 C 208.238281 120.246094 208.777344 120.789062 208.882812 121.308594 C 208.882812 121.339844 208.882812 121.394531 208.882812 121.460938 C 208.914062 121.53125 208.9375 121.617188 208.9375 121.722656 L 208.9375 121.777344 L 208.882812 121.828125 " fill-opacity="1" fill-rule="evenodd"/><g clip-path="url(#0ad4210efd)"><g clip-path="url(#d632b62660)"><path fill="url(#9a4911d63e)" d="M 150.105469 191.722656 L 150.105469 267.140625 L 208.882812 267.140625 L 208.882812 191.722656 Z M 150.105469 191.722656 " fill-rule="nonzero"/></g></g><g clip-path="url(#1f90167872)"><g clip-path="url(#8d441510ac)"><path fill="url(#25b565c81d)" d="M 150.105469 121.722656 L 150.105469 208.828125 L 208.953125 208.828125 L 208.953125 121.722656 Z M 150.105469 121.722656 " fill-rule="nonzero"/></g></g><path fill="#b2164d" d="M 192.207031 264.457031 L 192.207031 254.640625 L 210.601562 265.421875 L 210.652344 286.195312 L 210.601562 286.195312 L 192.207031 275.367188 L 192.207031 264.457031 " fill-opacity="1" fill-rule="evenodd"/><path fill="#e7137c" d="M 229 270.132812 L 229 275.367188 L 210.652344 286.195312 L 210.601562 265.421875 L 229 254.640625 L 229 270.132812 " fill-opacity="1" fill-rule="evenodd"/></svg>