<?xml version="1.0" encoding="utf-8"?>
<!-- Generator: Adobe Illustrator 23.0.6, SVG Export Plug-In . SVG Version: 6.00 Build 0)  -->
<svg version="1.1" id="Layer_1" xmlns="http://www.w3.org/2000/svg" xmlns:xlink="http://www.w3.org/1999/xlink" x="0px" y="0px"
	 viewBox="0 0 595.28 841.89" style="enable-background:new 0 0 595.28 841.89;" xml:space="preserve">
<style type="text/css">
	.st0{fill-rule:evenodd;clip-rule:evenodd;fill:#D71920;}
	.st1{fill-rule:evenodd;clip-rule:evenodd;fill:#FFFFFF;}
	.st2{fill:#FFFFFF;}
	.st3{fill:#0A286B;}
	.st4{fill-rule:evenodd;clip-rule:evenodd;fill:#0A286B;}
	.st5{fill-rule:evenodd;clip-rule:evenodd;fill:#00904C;}
	.st6{font-family:'UniversLTStd-BoldCn';}
	.st7{font-size:32.5398px;}
</style>
<g>
	<path class="st0" d="M187.99,89.63c0,0,0.17-2.72,0-3.63c-0.17-0.91-0.16-2.58-0.24-3.97c-1.33-1.81-6.11-7.01-6.36-14.44
		c-0.25-7.43,3.55-9.83,5.12-11.89c1.57-2.06,2.64-4.13,2.72-5.45c0.08-1.32,1.16-1.98,2.23,0.41c1.07,2.39,1.9,4.24,2.52,7.45
		c0.37,2.05,0.7,1.88,1.86-0.34c1.16-2.23,2.64-3.96,3.39-4.87c0.74-0.91,1.9-0.58,1.65,3.14c-0.25,3.72-0.15,6.6,0.67,4.87
		s4.12-7.35,4.2-13.13s-0.74-7.6,0.08-8.01s2.98,1.47,4.64,8.48s3.26,16.49-1.97,25.22c-2.09,3.7-1.66,8.36-1.66,8.36
		s0.31,0.45,0.31,1.86c0,1.4,0,4.46,0,4.46l-7.27,0.99l-7.27,0.41L187.99,89.63z"/>
	<path class="st1" d="M189.81,56.63c0,0-0.06,1.71-2.15,3.25c-2.09,1.54-1.71,7.49-0.44,8.92c-0.33-2.04,0.33-4.35,1.93-5.12
		c1.6-0.77,2.26-1.76,1.38-4.07C189.64,57.29,189.81,56.63,189.81,56.63z"/>
	<path class="st1" d="M207.86,48.48c0,0,0.06,6-1.54,9.14c-1.6,3.14-2.63,5.22-2.33,5.75s1.67-1.07,1.07,2.13
		c-0.61,3.19,1.32,0.44,1.98-0.22c0.66-0.66-0.5,2.7-1.65,3.41c-0.88,0.44,3.14,0,3.8-5.34C209.85,58,208.97,51.62,207.86,48.48z"/>
	<path class="st1" d="M188.58,83.91c0,0-0.09-0.53,4.98-0.53c5.06,0,9.74-0.44,10.4-0.66c0.66-0.22,1.71-0.33,1.98-0.88
		c0.33-0.11,0.91,0.88-1,1.24s-9.84,0.74-11.93,0.85c-2.09,0.11-4.24,0.33-4.24,0.33S188.17,84.05,188.58,83.91z"/>
	<path class="st1" d="M189.92,85.63c0,0,7.49-0.49,7.71-0.44s8.09-0.77,8.09-0.77s-4.4,0.99-6.33,1.21
		c-1.93,0.22-0.55,3.85-0.55,3.85l-8.59,0.94L189.92,85.63z"/>
	<path class="st1" d="M190.82,66.87c0,0-0.91,3.18-1.51,4.01c-0.61,0.83-1.27,6.83,2.92,9.8c1.6,0.99,8.86,0.28,9.41,0.06
		s1.51-3.28,0.89-3.32s-1.66,0.66-1.32,0.04c0.1-0.19,0.32-2.11,0.32-2.11s-0.55,2.25-2.04,2.8s1.76-1.21,0.94-4.46
		c-0.83-3.25-0.39-3.3-0.39-3.3s-0.39,2.42-2.09,3.47c-1.71,1.05-1.87,3.41-1.6,4.24c-0.39-0.22-1.54-2.09,1.16-4.95
		c1.21-1.21,0.52-0.79-0.89,0.35s-0.98-0.07,0.95-1.34c1.93-1.27,0.61-2.04-0.17-3.63c-0.77-1.6-0.61-2.81-0.61-2.81
		s-1.71,3.03-1.21,5.78c0.5,2.75-1.17,3.22-0.09,6.32c-1.12-0.43-0.9-3.35-0.41-4.5s-2.94-1.07-2.65,4.75
		c-0.65,0.1-1.75-3.21-2.19-5.41C189.81,70.44,191.73,69.8,190.82,66.87z"/>
</g>
<path class="st2" d="M198.67,88.08c0.11,0.81-5.71,0.3-5.71,0.3c-0.8,0-0.62-2.53-0.62-2.53s-2.57-3.07-2.57-2.27
	c0,0.81-0.41,5.07-0.41,5.07h-3.07l-3.87-2.27v3.07l-2.58,0.59l-3.15-2.59c0,0,1.16,3.13,0.36,3.26c-0.8,0.13-2.63,0.08-3.02-1.11
	c-1.38,2.24,4.91,6.53,4.38,8.26c1.62-0.4,1.65-1.46,1.65-1.46s-1.24-2.2,0-2.8c0.84-0.4,3.15-1.46,3.15-1.46s2.67,5.94,3.07,4.86
	c0.4-1.06-0.93-5.5,0-5.5c0.94,0,3.16-1.37,3.57-0.83c0.4,0.53,2.27,5.6,2.27,5.6l1.73-6.01c0,0,4.61-0.66,5.09-0.16
	c0.48,0.5,0.91,3.04,0.91,3.04s1.51,1.21,2,1.69c0.07-0.67,1.95-2.91,2.29-2.82c0.41,0.11,2.61,4.41,2.61,4.41l0.47-3.9
	c0,0,1.44-1.6,2.32,0.63c0.9,2.23,2.92,4.66,2.92,4.66s2.3-0.59,2.1-2.3c-0.2-1.7,2.89,1.41,4.2,3.21c0.68,0.93,1.05,2.86,1.62,4.51
	c-3.02-1.55-8.59-3.31-18.46-3.42c-17.81-0.21-23.38,0.39-27.18,4.81c0,0,0.6,1.99,1.79,3.39c0.9,3.01,6.61,5.01,6.61,5.01l1.39,7
	l4,4.41c0,0-4.38,2.29-3.26,4.59c2.2,4.54-0.33,3.34-0.07,5c0.18,1.09,2.13,2.8,3.33,4.41c-3,0.8-3.46,4.07-1.72,6.13
	c0.74,0.88,2.55,8.61,5.73,11.34c1.22,1.05,1.21,2.54,0,2.73c-1.2,0.2-0.97,2-0.16,3c0.81,1.01-2.06,0.3-2.59,2.8
	c-0.61,2.85,3.49,1.96,4.16,6.61c-1.2,1.01-0.2,4.21,1.52,5.6c-1.68,2.6,0.27,4.61,0.27,4.61s1.34,13.61,0,24.81
	c-1.32,11.21,2.41,18.68,7.21,34.16c0,0-0.14,4.08,0.55,7.44c0.27,1.24,0.42,3.16,0.67,4.89c-9.26,11.62-21.15,32.02-10.65,58.17
	c0.7,0.14,1.42,0.22,2.11,0.22c3.13,0.15,5.13-0.03,5.13-0.03c-0.21,3.21,4.79,0.4,3.2,2.4c-1.61,2-7.2,10.28-3,13.01
	c1.79,1.18,4.41,1.21,4.41,1.21s3.6,5.2,5.79,6.4c-3.4,5-5,12.21-1.8,13.8c3.21,1.61,3.48,3.84,2.71,4.8
	c-2.64,3.47-7.77,7.73-3.36,12.27c7.49,9.28,10.3,16.63,11.25,19.73c-10.89,16.17-18.62,53.99-14.58,59.93
	c4.32,6.35,8.89,6.97,11.75,6.52c-7.21,15.99-9.34,30.76-6.54,45.08c2.33,11.83,5.77,36.97,8.54,57.69
	c-2.71,4.86-7.89,21.95-2.27,27.8c-4.2,9.32-6.62,56.12-0.94,69.3c-3.12,3.14-3.34,4.51-3.16,5.37c0.05,0.26,0.16,0.48,0.27,0.66
	l0.91,6.91c-0.48,1.36-2.09,6.67,1.24,9.76c-0.56,1.89-1.01,4.45-1.46,7.14c-0.88,5.02-1.92,11.2-3.97,13.74
	c-4.5,0.83-9.94,3.96-11.18,7.5c-0.42,1.22-0.3,2.39,0.29,3.42l0.02,1.54l159.12-1.75l-0.04-3.2l-0.9,0.01
	c-0.29-1.16-0.97-3.71-1.07-4.65c-1.09-10.28-3.06-46.36-3.52-55.09c6.95-5.48,7.24-6.81,7.34-7.32c0.26-1.32-1.52-22.14-2.68-35.18
	l2.18-1.26l-0.09-6.25l3.7-2.65l-1.39-16.51l5.38-2.96l-4.39-35.57l1.97-2.48l-6.84-44.61l5.94-5.74c0,0,7.49,2.95,11.75-8.27
	c4.25-11.2,6.94-38.16,6.94-38.16s9.87,1.6,15.48-9.86c5.59-11.48,11.73-19.22,11.46-21.89c-0.27-2.66-4.28-7.46-4.28-7.46
	l6.94-11.2l-2.39-2.41l5.06-5.06l-4.84-2.1l-33.25-17.61l-0.9,5.85l-2.37-2c0,0-7.23,11.12-10.37,15.98
	c-3.27-4.19-9.57-9.09-12.06-9.98c-0.53-1.66-1.98-5.48-5.37-9.96c-1.35-13.25-7.25-25.75-11.33-30.26l-0.02-0.02
	c-4.41-5.98-9.47-8.57-13.61-9.73c1.61-4.21-3.21-5-3.21-5l-7.79-20.01l4-5.4l-5.4-20.41c2.4,0.2,5-1.01,2.6-4.4
	c-2.4-3.4-1.2-9.6,0.61-12.21c3.74,0,26.71-1.73,33.5-2.26l1.85,0.26l0.06-0.4l0.05-0.39l-36.39-4.93l-0.06,0.39l-0.82-3.88
	l30.23-13.12l1.64-0.29l-0.06-0.39l-0.07-0.39l-36.39,6.38l0.06,0.39c-1.08-1.4-2.59-3.12-4.36-4.58l18.64-24.01l-0.82,0.73
	l-0.42-0.54l-25.52,19.18l0.26,0.33c-2.72-1.38-6.54-2.38-8.55-2.37l-7.25-30.34v31.01c-2.61-0.09-9.12,1.51-11.61,3.08
	l-29.61-19.88l22.62,23.6c-4.01,4.21-4.01,6.21-4.01,6.21h-27.64c0.54-2.77,1.31-9.57-0.77-20.92c-1.79-9.81-8.2-24.3-9.61-44.51
	c1.22-10.27,0-26.96,0-26.96l-7.46-14.52c0,0-0.8-3.87,0-6.94c2.8,0.13,3.83-5.77,1.56-7.11c8.74-0.46,10.92-3.09,11.52-5.1
	c0,0,0.4-1.08,0.97-1.73c0.26-0.29,0.54-0.49,0.84-0.49c0,0-0.25-0.37-0.91-0.91c-0.33-3.61-1.63-6.42-1.82-6.81
	c-0.2-0.43,3.21-4.57,3.21-4.57s-1.7-0.29-2.2-0.69c-0.49-0.41,1.9-1.71,0.8-4.11c-0.19,1.61-4.3,3.41-4.7,3.11
	c-0.4-0.3,0.71-2.7,0.49-4.59c-1.18,1.6-5.8,2.3-6.4,2.02c-0.61-0.27,0-2.23-0.88-3.73c-0.48,0.5-2.61,2.1-3.53,1.9"/>
<path class="st3" d="M198.68,88.1c0.11,0.8-5.71,0.3-5.71,0.3c-0.8,0-0.63-2.53-0.63-2.53s-2.57-3.07-2.57-2.26
	c0,0.8-0.4,5.06-0.4,5.06h-3.07l-3.86-2.27v3.06l-2.59,0.59l-3.16-2.58c0,0,1.17,3.12,0.36,3.25c-0.79,0.13-2.63,0.08-3.02-1.12
	c-1.37,2.24,4.93,6.53,4.39,8.26c1.61-0.4,1.65-1.46,1.65-1.46s-1.25-2.2,0-2.8c0.84-0.4,3.14-1.46,3.14-1.46s2.67,5.94,3.08,4.86
	c0.4-1.06-0.94-5.5,0-5.5c0.93,0,3.16-1.36,3.59-0.83c0.38,0.53,2.26,5.61,2.26,5.61l1.73-6.01c0,0,4.59-0.66,5.07-0.17
	c0.48,0.5,0.91,3.04,0.91,3.04s1.52,1.21,2,1.69c0.08-0.67,1.95-2.91,2.3-2.82c0.41,0.1,2.61,4.4,2.61,4.4l0.46-3.9
	c0,0,1.44-1.59,2.34,0.63c0.88,2.23,2.91,4.67,2.91,4.67s2.3-0.6,2.09-2.3c-0.2-1.69,2.89,1.41,4.2,3.21
	c0.68,0.93,1.07,2.86,1.62,4.51c-3.02-1.55-8.59-3.3-18.46-3.42c-17.8-0.2-23.37,0.4-27.18,4.82c0,0,0.6,1.99,1.79,3.39
	c0.9,3.01,6.61,5,6.61,5l1.41,7.01l3.98,4.41c0,0-4.37,2.3-3.26,4.61c2.21,4.53-0.33,3.33-0.06,5c0.18,1.08,2.13,2.8,3.32,4.39
	c-2.99,0.81-3.45,4.08-1.72,6.14c0.74,0.88,2.57,8.61,5.74,11.33c1.23,1.05,1.2,2.54,0,2.74c-1.21,0.2-0.97,2-0.18,3
	c0.81,1-2.05,0.29-2.59,2.8c-0.6,2.84,3.49,1.96,4.17,6.6c-1.21,1-0.21,4.2,1.52,5.6c-1.69,2.6,0.28,4.61,0.28,4.61
	s1.32,13.61,0,24.81c-1.35,11.2,2.39,18.67,7.18,34.15c0,0-0.13,4.08,0.55,7.45c0.27,1.24,0.42,3.16,0.67,4.89
	c-9.26,11.63-21.14,32.02-10.65,58.18c0.7,0.12,1.42,0.21,2.11,0.21c3.14,0.15,5.13-0.02,5.13-0.02c-0.2,3.2,4.79,0.39,3.21,2.4
	c-1.61,2-7.2,10.28-3.01,13c1.79,1.18,4.41,1.21,4.41,1.21s3.61,5.2,5.8,6.4c-3.4,5-5,12.21-1.82,13.82
	c3.22,1.59,3.48,3.83,2.72,4.79c-2.65,3.47-7.77,7.74-3.36,12.28c7.48,9.28,10.29,16.62,11.24,19.73
	c-10.89,16.17-18.62,53.99-14.57,59.92c4.31,6.35,8.88,6.98,11.75,6.53c-7.21,15.98-9.34,30.76-6.55,45.07
	c2.33,11.83,5.77,36.97,8.54,57.69c-2.71,4.85-7.88,21.94-2.26,27.8c-4.21,9.32-6.62,56.13-0.95,69.31
	c-3.12,3.12-3.34,4.51-3.16,5.36c0.05,0.26,0.16,0.48,0.28,0.66l0.91,6.91c-0.48,1.35-2.07,6.67,1.23,9.75
	c-0.55,1.9-1,4.45-1.46,7.15c-0.86,5.02-1.92,11.21-3.96,13.73c-4.51,0.84-9.94,3.96-11.19,7.51c-0.41,1.21-0.3,2.39,0.3,3.42
	l0.01,1.53l159.13-1.73l-0.05-3.2l-0.89,0.01c-0.3-1.16-0.98-3.72-1.08-4.66c-1.08-10.28-3.05-46.35-3.52-55.08
	c6.95-5.48,7.24-6.82,7.34-7.32c0.27-1.33-1.51-22.15-2.68-35.18l2.18-1.25l-0.09-6.26l3.7-2.64l-1.38-16.51l5.38-2.96l-4.38-35.57
	l1.95-2.48l-6.84-44.61l5.94-5.74c0,0,7.49,2.94,11.75-8.28c4.27-11.2,6.94-38.16,6.94-38.16s9.88,1.6,15.48-9.87
	c5.59-11.47,11.73-19.21,11.47-21.88c-0.27-2.66-4.28-7.46-4.28-7.46l6.95-11.21l-2.41-2.41l5.06-5.07l-4.83-2.1l-33.25-17.6
	l-0.91,5.85l-2.37-2c0,0-7.23,11.13-10.36,15.98c-3.27-4.18-9.57-9.08-12.07-9.97c-0.52-1.68-1.98-5.48-5.37-9.97
	c-1.34-13.25-7.25-25.75-11.32-30.26l-0.04-0.01c-4.41-5.98-9.47-8.58-13.59-9.74c1.59-4.2-3.21-5-3.21-5l-7.8-20.01l4.01-5.4
	l-5.4-20.41c2.39,0.2,4.99-1.01,2.59-4.41c-2.39-3.4-1.2-9.6,0.62-12.2c3.74,0,26.7-1.75,33.49-2.27l1.85,0.26l0.06-0.4l0.05-0.39
	l-36.38-4.92l-0.07,0.39l-0.82-3.88l30.23-13.13l1.65-0.28l-0.06-0.4l-0.08-0.39l-36.39,6.38l0.07,0.4
	c-1.09-1.41-2.59-3.14-4.36-4.58l18.64-24.01l-0.83,0.71l-0.42-0.54l-25.52,19.2l0.26,0.33c-2.71-1.38-6.53-2.39-8.54-2.37
	l-7.27-30.34v31.01c-2.6-0.09-9.11,1.5-11.6,3.08l-29.63-19.88l22.62,23.61c-4.01,4.21-4.01,6.2-4.01,6.2h-27.63
	c0.54-2.77,1.3-9.57-0.77-20.91c-1.8-9.83-8.2-24.3-9.61-44.53c1.21-10.28,0-26.96,0-26.96l-7.46-14.53c0,0-0.81-3.87,0-6.94
	c2.8,0.14,3.83-5.77,1.55-7.1c8.74-0.47,10.93-3.09,11.52-5.1c0,0,0.41-1.07,0.97-1.73c0.27-0.28,0.55-0.49,0.86-0.49
	c0,0-0.26-0.37-0.93-0.91c-0.33-3.6-1.62-6.43-1.8-6.81c-0.2-0.43,3.2-4.56,3.2-4.56s-1.7-0.3-2.2-0.7c-0.49-0.4,1.91-1.7,0.81-4.11
	c-0.2,1.6-4.31,3.4-4.71,3.11c-0.39-0.3,0.71-2.71,0.5-4.61c-1.2,1.59-5.81,2.3-6.4,2.02c-0.61-0.26,0-2.23-0.89-3.72
	c-0.47,0.5-2.61,2.1-3.53,1.89l-4.11,0.19l-2.67-4.93L198.68,88.1z M341.18,247.34l-30.34-1.86l-0.49-2.31L341.18,247.34z
	 M347.9,369.1l0.2,0.9l0.87,0.28c3.07,0.98,11.31,4.44,12.79,8.56c-1.92,2.15-14.24,15.86-15.41,15.49c-1.89-1.34,0-5.07,0-5.07
	s11.59-9.21,4.54-18.28c1.07,3.73-4.8,16-5.47,14.94c-0.67-1.07,3.47-8.81,2.27-8.94c-0.56-0.06-1.91,0.12-3.35,0.25
	c-2.41-25.93-16.05-42.87-23.86-49.63c0.38-0.05,0.77-0.08,1.23-0.11c4.34,3.34,14.47,12.35,20.17,27.23
	c0.15,1.16,0.29,2.36,0.41,3.57l0.05,0.46l0.27,0.36C346.82,364.6,347.9,369.06,347.9,369.1 M354.25,483.31L354.25,483.31
	l6.06,42.18c-2.07-2.96-5.05-5.64-7.76-7.72c-1.02-9.62-3.35-30.21-5.77-39.94c10.11-4.95,0-23.61,0-23.61s1.57-4.66,2.18-9.86
	C350.66,458.29,352.84,473.56,354.25,483.31 M342.66,694.65c0.45,1.49,1.16,2.16,1.82,2.43c0.84,1.46,2.19,3.57,4.34,4.97
	l-4.04,0.04c-3.35-1.74-4.91-4.75-5.61-6.76c0.09-7.35,1.03-77.51,3.5-77.68c2.6-0.21,5.73,2.93,5.73,2.93
	S341.65,691.27,342.66,694.65 M311.84,699.26c1.11,1.72,3.79,2.7,5.33,3.14l-5.33,0.06V699.26z M317.35,700.22
	c-2.67,0.28-4.69-0.98-5.51-1.61v-6.47l-1.59-0.8v5.4c0,0-4.82,1.8-8.48-0.79c-1.27,4.42,5.19,6,8.39,6.52l-43.17,0.46
	c1.79-1.29,5.98-4.08,6.42-2.72c0.62,1.73,6.61,1.13,6.61,1.13l3.14-0.07c0,0-0.23-3.28,0.74-3.79c1.78,0.15,9.77,0.81,11.68,0.33
	c2.13-0.53,1.59-2.26-0.81-3.87c-0.54,1.99-8.39,3.6-10.86,2.4c-0.07-2.26,1.18-6.11,4.32-6l8.68-0.21l-8.27-2.2l0.77-1.2
	c0,0,12.56,2.47,16.36,4.87c-1.73-2.67-9.97-5.47-15.36-6.87c-0.59-0.61,0-2.81,0-2.81s12.62,4,18.23,9.21
	c-0.33-2.53-11.73-10.41-11.73-10.41l1.72-1.8c0,0,10.61,9.4,11.61,10.01c1.01,0.59-7.01-18.81,0-38.23
	c-1.21,17.61,0.39,37.61,4.2,39.42c3.8,1.81-4.79-62.43,8.61-82.84l3.81-1.9c0,0-3.02,72.17-11.4,90.56c1.17,5.99,4.79,0,4.79,0
	s4.46,4.92,6.93,4.25c2.47-0.67,0-2.24,0-2.24s-3.94-2.43-2.72-2.82c0.69-0.25,2.8-0.28,4.42-0.25c1.38,2.13,3.93,5.16,8.2,7.27
	l-18.49,0.2C319.12,701.65,320.14,699.92,317.35,700.22 M235.47,698.7c-0.67,0.36-2.12,1.61-1.42,2.38c0.48,0.53,3.59,1.29,5.6,2.16
	l-9.14,0.11c1.42-1.71,2.7-3.45,3.83-5.24c11.96-3.77,19.46-16.83,19.46-16.83l-19.09,16.22c0.8-1.27,1.52-2.55,2.2-3.83
	c9.86-11.8,18.22-41.53,20.61-50.57c0.53,0.63,1.01,1.47,1.49,2.63c-2.41,31.42-18.41,43.23-16.62,44.23
	c6.39-3.36,10.68-10.24,13.52-17.3c-0.5,2.53-0.9,5.09-1.66,7.57c-1.72,5.7-4.58,11.07-8.74,15.35c-0.68,0.68,1.3,1.63,1.95,0.91
	c7.23-8.1,8.29-17.65,9.93-27.79l-0.01,0.01c3.11-9.28,3.9-17.77,3.9-17.77s0.73,1.21,1.54,2c-3.8,48.02-17.82,49.22-17.82,49.22
	s0.41,1.21,2.61,0c9.64-3.07,14.12-15.7,16.3-28.63c2.05-8.85,6.35-26.8,8.55-35.92l4.63-5.43c0,0,0.86,12.26-0.36,26.89l0,0
	c-0.02,0.21-3.05,17.57-10.56,29.45c0.02-0.08,0.05-0.17,0.07-0.25c0.27-0.97,0.57-2,0.87-3.12c0.26-1.11,0.56-2.27,0.83-3.49
	c0.26-1.21,0.56-2.47,0.8-3.74c0.23-1.28,0.52-2.58,0.73-3.88c0.91-5.19,1.63-10.42,2.07-14.34c0.46-3.91,0.68-6.54,0.68-6.54
	s-0.84,2.05-1.61,5.92c-0.75,3.87-1.42,9.56-2.72,14.63c-0.3,1.28-0.67,2.54-1.01,3.77c-0.33,1.24-0.71,2.45-1.05,3.63
	c-0.36,1.17-0.74,2.29-1.09,3.35c-0.36,1.05-0.81,2.27-1.13,3.19c-0.22,0.6-1.79,4.75-2.81,7.45c-1.8,1.63-3.8,2.89-5.95,3.62
	l0.84,2.07c2.31-0.76,4.38-1.91,6.26-3.35h0.14c0,0,0.05-0.09,0.13-0.22c4.38-3.43,7.7-8.36,10.15-13.35
	c-2.43,7.9-5.98,14.86-11.14,19.15l-19.99,0.23C240.33,701.62,236.51,700.58,235.47,698.7 M239.72,661.26
	c1.09-0.87,2.19-1.75,3.23-2.62c-0.22,4.18-1.52,19.45-8.24,31.97l2.88-19.07L239.72,661.26z M217.13,576.48
	c0.01,0.13,0.02,0.25,0.02,0.38c-0.07-0.28-0.12-0.55-0.16-0.84C217.03,576.18,217.07,576.33,217.13,576.48 M218.34,584.51
	l9.59-10.83l1.54,1.07c-0.16,0.16-8.3,8.24-12.08,14.28C217.67,587.25,218,585.72,218.34,584.51 M306.27,331.13l9.97,12.53
	c-1.9-2.72-7.88-12.25-9.19-14.32l1.65-3.77l5.12,6.96l-3.97-9.53l0.5-1.17c1.9,0.95,3.45,1.94,4.69,2.84
	c6.19,4.85,24.89,23.78,27.68,52.65c-1.13,0.03-2.18-0.04-2.79-0.35c-9.94-23.88-24.95-52.2-24.95-52.2
	c4.08,9.32,11.04,25.98,3.01,49.66c3.98,0.26,6.39-14.34,6.39-14.34c1.8,3.81,1.8,11.81,1.8,11.81s-8.21,4.32-3.81,5.06
	c4.41,0.73,5.61,2.14,5.61,2.14l2.2,9.4c0,0-7.05-10.2-12.2-10.41c3.59,2.8,11.18,13.2,12.2,16.21c-4.62-5.2-11.59-12.01-12.2-12.01
	c-0.36,0-2.92,2.16-4.98,3.93l0.07-1.95c11.09-35.53,6.64-46.31,2.31-56.72l-0.73,0.3c2.43,5.86,4.91,11.83,4.54,22.41l-7.14-8.81
	l-1.82,84.98c-5.47,4.76-10.73,7.7-12.07,11.63c1.09-12.73,6.7-80.34,3.77-95.51h-0.01c-0.06-0.4-0.16-0.77-0.23-1.1L306.27,331.13z
	 M341,349.32c-3-6.73-9.56-15.86-17.54-21.8c1.07,0.08,2.27,0.27,3.67,0.66c3.53,2.92,9.55,8.75,13.01,17.09
	C340.44,346.56,340.75,347.92,341,349.32 M337.77,423.05l7.41,18.87l-5.73,5.36l-2.53-24.73l-0.01-0.02
	C337.19,422.61,337.44,422.77,337.77,423.05 M349.4,556.27c-11.25,5.63-21.77,11.66-31.68,17.77l-2.32-145.31
	c4.54-4.22,8.89-9.96,11.12-20.5C330.35,432.83,346.49,536.95,349.4,556.27 M300.03,608.51l-0.53-9.55l6.98,5.24L300.03,608.51z
	 M291.33,591.06c0.81-13.61,1.7-29.33,2.41-43.41l7.84-104.41c2.45-6.2,7.78-9.13,13.02-13.8l2.32,145.09
	C307.92,580.08,299.41,585.67,291.33,591.06 M323,404.99c-1.55-6.54-7.84-11.94-10.1-13.69l0.05-1.72
	C316.75,391.5,323.41,396.14,323,404.99 M312.78,395.72c2.18,1.18,8.78,5.3,9.88,12c-0.08,0.42-0.18,0.87-0.29,1.32
	c-2.41,7.15-6.33,12.08-10.35,15.85L312.78,395.72z M322.48,408.73c-0.04,0.07-0.07,0.14-0.09,0.22
	C322.41,408.87,322.44,408.81,322.48,408.73 M313.15,381.31l0.89-33.56l5.17,2.85C318.92,358.04,317.22,367.78,313.15,381.31
	 M285.72,411.38c7.18-17.38,13.09-36.92,16.2-60.18c0.79,25-4.22,83.25-4.66,88.44h-8.14l-19.72,84.7
	c-4.73,5.64-9.63,11.14-14.44,16.44c-8,8.88-16.24,18.01-23.29,27.19c-0.81,0.59-1.7,1.23-2.64,1.88
	C253.66,518.03,273.12,457.17,285.72,411.38 M270.52,522.98l19.23-82.54h8.13c0.07,1.48,0.67,3.14,1.93,5.07l-2.68,35.65
	C291.86,495.31,281.71,509.51,270.52,522.98 M291.24,592.76l4.92,3.69l0.77,14.12l-7.07,4.72
	C290.22,609.5,290.7,601.64,291.24,592.76 M271.32,638.95c-1.69,7.01-4.29,17.87-6.32,26.44c0.88-8.54,1.01-16.31,1.22-20.46
	L271.32,638.95z M250.1,652.62l0.18-1.07c0.2-0.31,0.34-0.58,0.41-0.81c0.26-1,0.3-2.21,0.28-3.5l0.94-5.74
	c2.25-0.06,3.94-0.11,5.32,1.29l-14.44,34.82c2.03-8.65,2.2-16.01,2.16-19.27L250.1,652.62z M243.69,659.71l0.45-0.5
	c0.01,4.48-0.45,14.14-3.94,24.62l-3.62,8.74c-1.85,3.64-4.13,7.23-6.95,10.59c-0.39-0.65-1.07-1.33-2.18-1.66
	C240.58,689.56,243.18,666.83,243.69,659.71 M330.94,693.6l1.69-27.4l2.43-39.09c0,0,2.45-6.6,3.84-5.2
	c1.41,1.41-2.65,74.06-2.65,74.06h0.71c0.87,1.61,2.68,4.25,5.91,6.15l-4.08,0.05C334.62,699.65,332.32,696.26,330.94,693.6
	 M308.85,602.62l-0.95-17.73h2.34l0.94,16.18L308.85,602.62z M344.12,427.49c-3.62-15.29-17.16-72.28-21.41-83.46
	c9.07,22.68,22.69,54.96,23.77,75.24c0.18,3.71,0.63,8.57,1.21,14C346.74,431.1,345.47,429.15,344.12,427.49 M309.57,316.25
	c3.47,0.13,5.61,4.27,8.29,4.27c2.34,0,8.04,1.09,15.22,7.2v0.9c0.18,0.26,0.36,0.52,0.53,0.79c-4.48-3.55-13.31-6.93-18.42-5.94
	C310.77,319.58,306.11,316.11,309.57,316.25 M219.62,505.64c-0.21-3.05-0.16-6.28,0.06-9.65c1.2-7.39,2.61-15.9,4.04-23.44
	c8.06-31.86,25.44-67.73,33.18-83.54c7.66-5.96,15.29-12.18,19.66-16.41C242.92,439.15,226.44,484.54,219.62,505.64 M219.71,435.28
	c0-0.04,0-0.08,0-0.12c0.05-0.11,0.09-0.23,0.13-0.35C219.8,434.98,219.74,435.13,219.71,435.28 M227.55,410.94
	c-3.15,4.34-5.47,8.61-6.95,11.63c0.13-1.42,0.28-2.88,0.45-4.36c7.58-20.56,24.33-51.02,49.27-74.57
	C261.05,355.27,236.23,390.13,227.55,410.94 M220.94,443.48c0-0.61-0.07-1.18-0.28-1.69c2.02-11.65,8.64-26.72,19.73-40.39
	c3.6-2.6,8.13-5.98,12.87-9.6c-0.76,1.17-1.59,2.44-2.47,3.77c-2.58,3.9-5.6,8.47-8.84,13.36c-1.59,2.45-3.26,4.99-4.95,7.56
	c-1.69,2.58-3.33,5.24-4.98,7.9c-3.28,5.33-6.5,10.71-9.34,15.87C222.09,441.36,221.51,442.42,220.94,443.48 M308.08,320.8
	c-3.09,4.22-14.09,20.52-22.86,31.77c-7.8,10.03-18.21,19.24-28.04,27.82c13.36-21.49,37.78-49.95,49.48-59.96
	C307.12,320.51,307.61,320.64,308.08,320.8 M306.24,310.92h-6.8l-0.54-12.15C300.24,300.65,306.24,310.92,306.24,310.92
	 M305.17,246.35l2.25-1.47l0.43,0.67l-2.24,1.46L305.17,246.35z M336.5,226.31l-29.79,7.77c0,0-0.57-0.95-1.56-2.27L336.5,226.31z
	 M304.88,240.76c0.25-0.32,0.47-0.61,0.64-0.85l0.66,0.47c-0.19,0.23-0.41,0.53-0.66,0.86c-0.59,0.76-1.78,2.36-1.76,2.75
	c0-0.02-0.02-0.08-0.08-0.13l-0.5,0.63C302.56,244,303.26,242.92,304.88,240.76 M303.74,235.73l0.57,0.55
	c-0.97,1.05-3.09,4.27-3,4.86l-0.74,0.29C300.1,240.35,303.28,236.24,303.74,235.73 M316.92,204.77l-22.16,19.17
	c-0.45-0.41-1.07-0.82-1.75-1.18L316.92,204.77z M300.17,230.61c-3.47-3.8-14.87-6.74-14.87-6.74l-0.54-2
	C291.89,222.4,299.57,228.01,300.17,230.61 M300.48,232.46c-1.17,1.48-2.45,6.66-2.46,6.71l-0.77-0.19c0.05-0.22,1.35-5.4,2.61-7.02
	L300.48,232.46z M294.41,236.38l-0.77,0.19c-0.33-1.32,0.46-4,1.02-5.95c0.18-0.57,0.32-1.05,0.38-1.37l0.79,0.16
	c-0.07,0.34-0.22,0.84-0.39,1.43C294.94,232.5,294.16,235.27,294.41,236.38 M289.09,236.01c0,0-1.34,0-1.99-0.44
	c-0.34-0.16,0.06-7.36,0.46-8.8c0,0,1.54-0.1,2.41,0.37C288.89,230.61,289.09,236.01,289.09,236.01 M282.73,226.23h0.8v9.09h-0.8
	V226.23z M304.87,252.89c-0.18-2.41-18.84-10.41-21.05-10.55c-2.19-0.13-4-5.87-4.88-6.26
	C289.71,235.55,303.03,241.28,304.87,252.89 M287.3,279.09c-0.14-0.59,1.86-1.52,1.73-2.2c-0.14-0.67-1.2-1.73-1.73-2.14
	c-0.54-0.39-0.81-2.93-1.21-4.26c-0.4-1.34,1.75-2.14,1.75-2.54c0-0.4-2.52-2.1-3.47-3.47c-0.29-0.4,1.91-1.96,1.96-1.55
	c0.19,1.63,5.32,1.55,6.54,5.69c1.2,4.13-4.64,14.27-5.31,14.47C286.9,283.3,287.42,279.7,287.3,279.09 M283.02,269.7
	c-1.05-0.27-5.59,0.26-6.2-0.67c-0.62-0.94,1.15-2.64,1.15-2.64s-3.22,0.11-2.68,2.24c0.54,2.14,1.54,4,1.54,4s1.65-0.13,2.12,0.66
	c0.48,0.81-0.46,1.34-2.12,1.6c-1.66,0.27-3.42,2.81-3.42,2.81h2.68c0,0,0.94-1.61,1.61-1.61c0.66,0,2.26,0.42,2.26,0.42l-3.13,2
	v1.2c0,0,3.81-0.54,4.08,0.67c0.25,1.2,1.58,5.07-0.95,4.73c-2.52-0.34-6.12-1.8-6.55-2c-0.38-0.21-0.52-5.8-1.31-4.01
	c-0.8,1.81-2.27,3.94-2.95,2.74c-0.66-1.2-1.85-12.14-1.85-12.14c0.14-2.67,7.88-2.54,9.54-8.67c1.66-6.14,3-6.94,1.66-6.8
	c-1.34,0.12-6.66,1.03-6.81-0.01c-0.13-1.06,9.61-4.79,9.08-8.87c4.39,4.46,10.8,7.94,9.73,8.48c-1.08,0.53-6.67-1.61-7.34,0.93
	C282.48,257.29,284.09,269.96,283.02,269.7 M266.01,301.32c0.02,1.97,0.62,17.41,11.26,26.97c-1.22,1.01-2.5,2.07-3.81,3.2
	c-5.45-7.56-6.83-14.55-6.86-14.63l-0.79,0.12c0.01,0.08,1.18,7.59,6.52,15.48c-1.49,1.28-3.04,2.64-4.62,4.03
	c-3.9-5.87-5.29-16.14-5.31-16.24l-0.8,0.1c0.07,0.45,0.77,11.34,4.57,17.52c-4.54,4.05-9.34,8.49-14.07,13
	c-0.28-0.76-0.94-3.49,1.17-9.39c0,0-3.94,5.79-3.8,11.91c-3.8,3.65-7.52,7.34-11.02,10.9c-0.79-4.47-2.19-17.75,4.96-34.51
	c7.01-16.44,9.56-37.53,10.35-46.07c0.53,0.46,1.08,0.93,1.64,1.38c0.98,7.4-3.21,29.81-4.62,39.62
	c6.35-13.05,7.44-31.49,7.44-31.49s0.79,1.08,1.69,2.88c0,0-0.52,11.8,1.22,16.45l2.07-15.05l1.82,0.2
	C265.23,298.78,265.54,300.01,266.01,301.32 M278.46,327.31c-8.34-7.43-10.75-18.33-11.41-23.41c3.04,6.52,9.59,13.97,22.16,15.53
	C286.92,320.67,283.13,323.47,278.46,327.31 M223.12,381.11c-1.23-9.16,4.91-33.57,10.96-38.17c-6.46,9.69-8.03,29.73-8.34,35.06
	C224.8,379.08,223.91,380.12,223.12,381.11 M241.81,323.92c1.62-2.43,3.15-4.89,4.38-6.94c-1.2,4.17-2.59,8.31-4.25,12.19
	c-8.09,19.01-5.55,33.33-4.83,36.53c-3.06,3.15-5.92,6.19-8.48,9.03C229.14,358.48,238.3,337.43,241.81,323.92 M199.51,301.61
	c0.36,0,4.97,1.1,2.17,1.91c-2.2,0.63-3.97-0.23-4.63-0.62c0.8-3.57,1.91-7.13,3.22-7.79l5.36,0.74c-2.81,2.21-5.05,3.48-6.12,3.19
	C199.51,299.05,199.15,301.61,199.51,301.61 M207.33,294.46c-1.84-0.15-7.05-0.64-7.05-1.55c0-1.11,2.2-9.5,3.81-7.8
	c1.58,1.7,4.1,4.1,4.5,4.1c0.41,0,0.95-1.21,0.95-1.21s-6.38-6.09-1.76-15.4c0.77,5.27,1.2,9.61,0.82,11.34l-0.08,0.4l0.28,0.3
	c1.01,1.17,2.2,1.78,3.42,1.78c0.08,0,0.18,0,0.25-0.01c1.88-0.13,3.77-1.64,5.67-4.51c9.23-10.71,15.26-24.46,17.37-29.74
	c0.7,0.71,1.29,1.46,1.78,2.28l-3.35,6.76l0.67,1.44c0,0-5.26,10.05-8.6,16.06c1.75-3.77,3.05-7.65,3-10.86
	C225.73,275.75,215.05,287.88,207.33,294.46 M215.39,282.56l0.15,0.13c-1.14,1.32-2.21,2.04-3.19,2.11c-0.09,0-0.19-0.01-0.27-0.02
	c14.38-17.33,19.44-32.12,20.8-36.97c0.68,0.88,1.24,1.72,1.61,2.54C232.94,254.4,226.21,270.9,215.39,282.56 M233.94,295.89
	c0.06,0.39,0.15,0.74,0.34,0.98c0.15,0.23,0.41,0.39,0.7,0.49c0.15,0.05,0.3,0.08,0.46,0.09c0.15,0.04,0.32,0.02,0.46,0.03
	c0.29,0.01,0.57-0.04,0.79-0.04c0.45-0.07,0.71-0.09,0.71-0.09s-0.22,0.16-0.61,0.4c-0.22,0.09-0.46,0.25-0.79,0.33
	c-0.32,0.11-0.69,0.23-1.16,0.19c-0.45,0-1.02-0.16-1.45-0.57c-0.45-0.41-0.7-0.96-0.84-1.49c-0.13-0.55-0.2-1.1-0.2-1.64
	c0-0.54,0.04-1.09,0.09-1.61c0.14-1.07,0.41-2.08,0.68-3.01c0.28-0.94,0.61-1.78,0.89-2.5c0.61-1.43,1.13-2.34,1.13-2.34
	s0,0.26-0.02,0.71c-0.04,0.46-0.09,1.11-0.21,1.88c-0.11,0.77-0.26,1.64-0.41,2.58c-0.16,0.93-0.34,1.92-0.46,2.88
	C233.92,294.12,233.83,295.09,233.94,295.89 M235.6,272.63c0,0,0.97-1.39-0.49-3.19c2.43-2.23,3.67-4.35,4.3-6.41
	c0,2.07-0.23,4.25-0.64,6.51C237.37,271.36,235.6,272.63,235.6,272.63 M224.72,281.26c3.54-4.96,9.47-14.37,9.47-14.37l0.06,3.3
	c-2.86,6.28-12.53,20.39-17.39,23.51C217.91,292.28,221.66,287.12,224.72,281.26 M233.1,306.93c0.41-0.4,0.8-0.91,1.25-1.39
	c0.45-0.49,0.82-1.09,1.28-1.64c0.42-0.59,0.8-1.23,1.22-1.86c0.36-0.66,0.79-1.31,1.11-2.01l0.53-1.02
	c0.15-0.35,0.32-0.7,0.47-1.05c0.33-0.69,0.61-1.39,0.9-2.06c0.23-0.69,0.53-1.35,0.77-1.97c0.25-0.64,0.47-1.23,0.68-1.79
	c0.42-1.11,0.79-2.03,1.11-2.68c0.15-0.33,0.3-0.56,0.41-0.7c0.11-0.16,0.16-0.24,0.16-0.24s-0.02,0.09-0.09,0.28
	c-0.02,0.08-0.05,0.19-0.09,0.33c-0.02,0.13-0.06,0.28-0.08,0.46c-0.14,0.66-0.3,1.65-0.55,2.81c-0.23,1.17-0.56,2.54-1,3.98
	c-0.27,0.7-0.47,1.46-0.81,2.19c-0.14,0.37-0.32,0.73-0.46,1.11l-0.55,1.09c-0.35,0.74-0.81,1.41-1.22,2.09
	c-0.45,0.67-0.93,1.31-1.42,1.9c-0.52,0.57-0.97,1.14-1.51,1.6c-0.53,0.46-1.01,0.91-1.51,1.27c-0.49,0.35-0.96,0.66-1.38,0.93
	c-0.42,0.26-0.82,0.42-1.14,0.59c-0.64,0.29-1,0.46-1,0.46s0.29-0.28,0.83-0.73c0.25-0.23,0.59-0.49,0.94-0.81
	C232.3,307.71,232.67,307.32,233.1,306.93 M244.85,280.25c0.46,0.25,0.75,0.38,0.75,0.38l0.79-0.4c0.02,1.54,0,8.91-1.91,17.66
	C244.85,290.26,245.05,282.99,244.85,280.25 M250.67,295.89c-0.45,0.82-2.74,4.98-5.46,8.66c3.88-12.61,2.81-24.38,2.75-24.83
	l-0.79,0.11l1.43-0.74c0,0,1.58,1.49,3.67,3.34C252.04,285.22,251.56,290.05,250.67,295.89 M244.02,306.07h0.01
	c-0.01,0.01-0.01,0.02-0.02,0.02C244.02,306.08,244.02,306.08,244.02,306.07 M243,318.12c0.27-2.19,0.57-5.54,0.84-9.39
	c2.27-2.44,4.51-5.79,6.09-8.37c-0.62,3.5-1.37,7.23-2.29,11.04c-0.4,0.69-2.37,4.07-4.85,8C242.89,318.96,242.94,318.54,243,318.12
	 M261.21,293.71l2.5-6.81c0,0,1.3,6.81,1.51,9.21L261.21,293.71z M261.21,252.09c-6.47,4.66-4.17-6.13-2.19-7.62
	c12.93-9.74,20.13-7.61,20.93-4C276.75,241.42,267.68,247.42,261.21,252.09 M262.57,230.15c0,0,1.13-0.35,1.68-0.8
	c2.8,2.28,3.67,7.63,3.67,7.63s-0.7,0.6-1.61,1.1C266.51,236.87,264.18,231.41,262.57,230.15 M262.98,239.1l-0.81-0.05
	c0.09-1.5-2.31-5.48-3.55-6.54l0.52-0.61C260.56,233.12,263.09,237.28,262.98,239.1 M260.19,240.05l-0.76,0.2
	c-0.25-0.94-2.66-3.44-3.77-3.87l0.29-0.74C257.29,236.16,259.91,238.88,260.19,240.05 M268.61,227.47l2.4-0.7
	c1.8,2.51,1.51,9.7,1.51,9.7s-1.21-0.19-2,0C270.72,233.87,269.82,228.87,268.61,227.47 M274.77,225.94c0,0,2.1-0.36,2.95-0.27
	c0.09,0.46,0.6,9.66,0.6,9.66s-0.75,0.21-2,0.25C276.12,233.53,275.96,229.14,274.77,225.94 M277.55,222.11
	c1.21,2.13,1.21,2.46,1.21,2.46s-8.23-1.38-15.89,3.69c-0.47-0.6-0.73-0.98-0.73-0.98C264.21,225.27,270.98,222.11,277.55,222.11
	 M258.47,228.87c0.41,0.8,1.08,1.75,1.08,1.75s-2.67,1.14-4.88,4.01C254.55,234.22,257.49,229.01,258.47,228.87 M254.02,239.34
	c1.24,0.74,4.11,2.62,4.2,3.65l-0.81,0.05c-0.06-0.41-1.79-1.8-3.81-3.02L254.02,239.34z M253.15,242.98
	c0.57,0.23,3.46,1.49,3.6,2.92l-0.81,0.08c-0.07-0.7-1.85-1.76-3.08-2.27L253.15,242.98z M253.42,256.89
	c-1.36,4.27-4.14,10.27,0.79,11.4l-6.8,10.21c-3.52-2.36-5.24-4.37-6.05-6.31c-0.25-1.22-0.45-2.41-0.61-3.43
	c0.05-1.9,0.5-3.9,0.64-6.27c0.41-6.27-3.34-8.94-4.39-10.93h13.79C250.8,251.56,251.41,255.69,253.42,256.89 M250.8,240.48v4.73
	l-15.94,1.41c-5.19-3.21-7.07-8.54-7.07-8.54S247.13,239.95,250.8,240.48 M219.4,266.39c4.64-6.43,9.73-16.71,9.73-16.71
	l-2.12-10.44c1.05,2.63,2.96,4.92,4.65,7c-0.68,2.81-5.11,18.76-21.09,37.89c-0.12-0.09-0.22-0.17-0.32-0.28
	c0.77-5.92-3.97-28.96-5.14-34.45c0.08-1.39,0.33-2.94,1.08-2.71C207.52,247.08,216.3,254.46,219.4,266.39 M210.05,155.37
	c1.48-4.68-0.54-21.08-4.41-22.15c-3.86-1.07-4.54-7.46-4.34-9.61c1.41,3.07,1.28,6.84,6.74,8.03
	C212.99,139.36,212.14,151.58,210.05,155.37 M188.56,113.07c2.16-0.93,16.29,1.46,18.69,4.41c-10.14-2.81-16.68,0-18.69,0
	C186.58,117.48,187.64,114.28,188.56,113.07 M196.64,123.61h-4.49l-1.01-4.27C193.06,118.28,196.64,123.61,196.64,123.61
	 M192.34,127.22c0,0,1.43,0.53,1.76,0.46c0.33-0.07,0-1.53,0-1.53h2.54c0.73,0,1.8,2.41,0.57,2.8c-1.24,0.4-8.66,0.27-9.18,0
	c-0.53-0.26-1.15-2-1.15-2C187.23,125.75,192.34,127.22,192.34,127.22 M186.31,133.49c0,0,5.81-2.4,8.96-1.73
	c3.18,0.67,6.79,2.94,8.91,2.8c-0.13,4.41-6.14,1.33-7.54,1.2C195.25,135.62,192.72,139.36,186.31,133.49 M188.44,142.69
	c-1.73,0-2.33-2.55,0-2.93c2.14-0.35,9.88,0,11.66,0.67c1.79,0.67,1.41,3.47,0,2.8C198.68,142.56,190.17,142.69,188.44,142.69
	 M193.69,159.73c2.21,0.57,1.04-5.54-0.57-7.16c-0.54-1.61,3.53-2.38,4.21-5.54c1.55,3.7,2.29,4.31,5.3,7.22
	c0.8,0.8,0.35,2.46-3.01,2.59c-3.36,0.13,0.05,1.33,1.37,1.33c1.34,0,5.34,0.54,7.07,4.27c-2.4-2.41-11.06-1.34-13.86-1.2
	C191.37,161.37,192.42,159.41,193.69,159.73 M191.94,165.65c-1.3,0-0.79-2.41,0-2.6c6.83-1.66,13.57,0.33,14.64,2.6
	C200.85,162.97,193.26,165.65,191.94,165.65 M195.79,173.51c-0.41-0.13-0.88-2.46,0-2.8c2.17-0.88,7.18,0.66,6.8,2.8
	C201.25,171.65,196.17,173.64,195.79,173.51 M197.22,175.91c0.43-0.13,5.5,0.11,5.37,1.66c-1.73-0.18-5.37-0.06-5.37-0.06
	C196.17,177.91,196.78,176.04,197.22,175.91 M197.34,210.87c0.46-12.01,0-27.02,0-27.02h1.45c0,0,0.8,18.4,3.2,29.12
	c2.4,10.69,10.61,27.18,10.61,27.18s-1.59,1.54-6.41-2.06C202.59,231.88,197.05,218.08,197.34,210.87 M194.48,307.28
	c-8.44-18.74-1.02-39.73,10.23-51.94c0.14,0.73,0.29,1.48,0.42,2.23c-2.02,2.64-7.72,10.2-9.71,14.35l0.74,0.35
	c2.72-5.19,7.46-9.91,9.52-11.87c0.26,1.17,0.46,2.37,0.68,3.56c-2.12,2.12-12.62,12.7-13.77,14.54c3.28-2.14,9.23-6.94,13.16-8.4
	c-2.3,2.11-12.68,11.91-14.37,18.4c2.12-3.82,9.54-8.53,12.4-10.08C200.76,286.45,195.84,300.14,194.48,307.28 M196.01,308.48
	c0.15-0.92,0.33-2.02,0.55-3.2c1.37,0.52,4.32,1.4,8.54-0.29C203.34,307.51,197.46,308.31,196.01,308.48 M209.04,306.67
	c-0.57,0.34-1.15,0.62-1.69,0.91c-0.54,0.28-1.08,0.52-1.56,0.73c-1.96,0.89-3.35,1.28-3.35,1.28s1.16-0.87,2.89-2.07
	c0.87-0.62,1.89-1.31,2.98-2.04c0.54-0.38,1.09-0.76,1.66-1.15c0.57-0.38,1.14-0.79,1.71-1.2c0.57-0.38,1.13-0.8,1.69-1.2
	c0.56-0.4,1.1-0.8,1.62-1.2c0.52-0.4,1.02-0.79,1.49-1.15c0.46-0.39,0.91-0.75,1.31-1.07c0.39-0.35,0.75-0.66,1.07-0.94
	c0.33-0.28,0.6-0.55,0.81-0.77c0.46-0.42,0.71-0.67,0.71-0.67s-0.16,0.32-0.46,0.87c-0.16,0.27-0.34,0.62-0.6,0.97
	c-0.26,0.35-0.54,0.77-0.88,1.19c-0.35,0.4-0.73,0.86-1.15,1.31c-0.45,0.43-0.89,0.9-1.39,1.35c-0.52,0.43-1.03,0.91-1.59,1.34
	c-0.56,0.42-1.13,0.88-1.71,1.29c-0.6,0.4-1.18,0.81-1.77,1.18C210.25,306,209.64,306.33,209.04,306.67 M212,308.9
	c-0.76,0.45-1.21,0.69-1.21,0.69s0.36-0.35,1.03-0.94c0.32-0.3,0.73-0.64,1.15-1.09c0.42-0.43,0.94-0.9,1.45-1.44
	c0.52-0.54,1.07-1.14,1.64-1.76c0.57-0.64,1.17-1.32,1.78-2.02c0.61-0.72,1.23-1.46,1.86-2.21c0.61-0.77,1.27-1.52,1.86-2.33
	c0.63-0.77,1.25-1.55,1.85-2.34c0.6-0.78,1.18-1.55,1.77-2.29c1.14-1.49,2.21-2.88,3.12-4.08c1.83-2.41,3.09-3.99,3.09-3.99
	s-0.81,1.87-2.32,4.49c-0.39,0.66-0.8,1.37-1.27,2.1c-0.48,0.73-0.95,1.52-1.49,2.3c-0.53,0.79-1.07,1.6-1.68,2.4
	c-0.59,0.8-1.21,1.61-1.83,2.4c-0.62,0.8-1.3,1.56-1.95,2.32c-0.63,0.77-1.35,1.46-2,2.16c-0.66,0.69-1.32,1.31-1.97,1.92
	c-0.64,0.59-1.29,1.11-1.86,1.6c-0.59,0.47-1.18,0.88-1.69,1.24C212.85,308.42,212.39,308.68,212,308.9 M213.19,341.53
	c5.59-6.8,19.77-24.13,26.8-38.21c0.81-1.61,3.19-1.78,2.09,0.66c-9.69,21.62-27.75,40.15-27.89,40.15
	C214.05,344.13,213.19,341.53,213.19,341.53 M214.19,347.74c4.41-4.8,12.01-13.01,12.01-13.01l-9.82,17.01L214.19,347.74z
	 M207.37,443.12c-1.35-2.02-0.75-12.76,2.6-26.64c3.36-13.91,8.57-26.72,13.51-33.28c14.78-18.55,59.4-59.07,68.62-63.53
	c0.67,0.04,1.35,0.05,2.03,0.05c0.26,0,0.53,0,0.77-0.01l-0.01-0.81c-17.73,0.3-25.39-10.15-28.1-17.74c0-0.02,0-0.04,0-0.05h-0.01
	c-0.42-1.2-0.71-2.31-0.91-3.31l0.35,0.04c0,0,0.82-5.08,1.73-5.21c2.47-0.33,9.87,22.01,20.81,22.15
	c10.93,0.13,16.41,0.13,16.48,1.32c0.06,1.21-9.67,1.88-11.14,1.08c0.8,1.33,3.82,1.7,6.28,1.58c2.23-0.11,2.32-0.27,0.16,0.55
	c-3.62,1.37-7.84,4.03-9.5,8.4c2.16-1.82,8.48-7.62,14.53-7.39c-12.38,10.83-37.56,40.41-50.43,61.85
	c-5.85,5.2-11.09,10.83-15.69,16.65c-1.76,1.22-3.4,2.6-4.95,4.05c9.43-19.98,39.71-59.44,39.71-59.44l-6.14,12.11
	c4.39-3.79,17.92-22.25,24.76-33.73c0.23-0.43-0.08-0.83-0.75-0.69l-16.52,16.71c-27.05,23.15-45.45,55-54.16,77.16
	c1.35-11.05,3.55-22.6,7.2-29.74c-3.35,2.46-18.14,33.59-13.82,54.86c-5.06-0.62-6.47-4.34-6.47-4.34
	c0.38,6.43,3.69,10.73,5.72,12.76C212.1,448.06,209.75,446.61,207.37,443.12 M220.48,449.52l0.75-1.57c1.07-2.13,2.2-4.34,3.42-6.61
	c2.78-5.13,5.94-10.51,9.18-15.84c1.63-2.65,3.28-5.31,4.88-7.93c1.63-2.61,3.23-5.18,4.78-7.66c2.33-3.73,4.59-7.27,6.61-10.5
	c-8.53,17.97-20.86,45.69-27.52,71.23c-3.59,9.45-7.98,21.08-9.39,26.12c-0.08-0.4-0.15-0.77-0.22-1.15
	C210.12,481.07,212.58,465.99,220.48,449.52 M218.75,532.99c6.13-39.59,41.36-122.64,62.79-168.67c0.95-1.1,1.92-2.27,2.88-3.53
	c7.68-9.91,13.86-21.52,17.17-27.83c3.35-5.29,6.15-9.86,7.32-11.81c0.25,0.11,0.49,0.22,0.74,0.33l-8.66,19.64l-0.21,0.07
	c0.02,0.08,0.06,0.18,0.08,0.25l-0.47,1.05h-0.02c0,0.02-0.01,0.06-0.01,0.09l-16.89,38.36l0.73,0.32l15.75-35.74
	c-3.71,21.85-31.05,137.84-73.55,226.16c-3.14,2.12-6.13,3.9-7.08,3.82c-2.26-0.2,6.6-15.21,6.6-15.21s1.28-1.8,0-1.59
	c-1.27,0.2-5.26,6.4-5.26,6.4s-1.04,1.24-2.06-0.13c-1.8-2.43,12.81-16.81,12.81-16.81s-7.68,2.95-9.84,5.44
	C220.67,546.98,219.71,539.92,218.75,532.99 M218.22,652l0.64-0.62l-0.41-0.81c-4.37-8.44-3.94-39.25-1.77-56.74
	c3.35-0.33,7.31-3.33,7.31-3.33s-10.17,19.81-8.21,29.42c4.78,0,10.02-6.01,10.02-6.01l-9.01,13.2c0,0,1.2,17.21,2.4,18.01
	c1.2,0.8,9.41-9.2,9.41-9.2s-8.12,15.56-12.96,22.26l-0.35-2.72h-0.01C215.52,654.95,216.24,653.9,218.22,652 M200.85,702.73
	c0.86-2.44,5.58-5.36,9.71-5.99l0.41-0.06l0.28-0.3c2.71-2.85,3.84-9.45,4.84-15.27c0.53-3,1.01-5.84,1.63-7.57l0.29-0.86
	l-0.74-0.52c-3.16-2.21-1-7.71-0.98-7.77l0.12-0.29v-0.03c3.26,3.04,10.17,3.05,14.99-1.34l25.21-101.31l11.47-12.07l-26.59,100.37
	l1.55,0.4l34.44-129.99c3.89-5.04,7.52-10.15,10.75-15.39c0.74,0.13,3.2,0.8,4.25,4.44c1.01,3.5-2.37,63.87-5.12,107.77l-12.66,8.43
	c-11.94,6.2-22.66,11.77-24,12.44c-3.04,1.51-2.96,5.47-2.92,8.64c0.01,1.31,0.02,2.67-0.18,3.41c-0.66,1.7-7.69,8.16-18.47,17.36
	c-4.43,3.23-10.96,8.31-11.45,9.71c4.1,3.46,9.5,1.2,9.5,1.2l4-10.32c0.96-0.71,2.12-1.59,3.41-2.58
	c-2.47,6.87-9.49,26.24-10.73,27.15c-1.49,1.1-6.18-4.44-6.18-4.44s0.2,4.1,2.31,6.01c2.09,1.91,4.3,0.6,4.69,1.3
	c0.22,0.39,4.98-10.65,9.08-20.39l-7.52,23.84c1.29-0.26,2.81-0.7,4.13-1.5c-1.2,1.48-2.5,2.88-3.95,4.13
	c-1.55,0.04-1.79,1.59-1.82,2.07l-3.3,0.04c-0.3-0.42-1.54-1.95-2.52-2.29c-1.11-0.39-1.77,1.02-1.65,2.34l-16.37,0.18
	C200.7,703.38,200.72,703.08,200.85,702.73 M353.78,702l-2.84,0.03c-3.28-1.69-4.39-6.28-4.76-8.61c0.32-9.09,1.32-32.57,3.43-45.2
	c0.73,13.49,2.27,40.68,3.21,49.43C352.91,698.57,353.34,700.27,353.78,702 M362.82,562.81h-5.48l-3.95-35.93
	c2.46,1.96,4.46,4.07,5.81,5.6L362.82,562.81z M389.22,419.64c-1.76,0-5.32-5.33-6.53-7.21l0.22-0.34c-2.7-1.66-1.77-4.34-1.72-4.45
	l-0.35-0.13l3.84,1.32c0,0,5.46,6.67,6.13,8.01C391.49,418.17,391.35,419.64,389.22,419.64 M394.95,413.37
	c-1.32,0-6.41-3.6-7.2-6.94c-1.34,0-4.7-0.56-5.47-2.13c-0.32-1.21,0.05-2.26,0.23-2.71l2.39,0.21c0.05,0.14,0.12,0.27,0.18,0.36
	c0.8,1.2,4.8,1.07,4.8,1.07l6.94,6.67C396.82,409.9,396.28,413.37,394.95,413.37 M400.16,407.38c-1.46,0.66-5.34-2.81-9.08-5.48
	c-4.07,0-5.45-2.67-5.39-4.57c1.36,1.56,5.52,1.41,6.48,1.35l3.22,2.21l0.22-0.32l5.2,4.54C400.82,405.1,401.62,406.7,400.16,407.38
	 M393.96,389.06l0.91-1.7c0.95,0.9,3.4,3.25,4.78,4.61c0.13,0.88,0.54,4.27-0.96,3.93c-1.41-0.32-3.23-2.29-4.17-3.67h0.01
	L393.96,389.06z M400.01,391.18c-1.79-1.73-4.91-4.72-4.96-4.76l-0.38-0.36l-1.55,2.87l0.61,3.45l0.14-0.03
	c0.19,0.93,0.94,1.96,0.94,1.96l0.73,5.74l-3.15-2.18l-0.14,0.01c-2.06,0.15-5.59-0.07-6.15-1.31l-0.36,0.17
	c-0.07,0.01-0.14,0.05-0.22,0.09l-0.14,0.06c0,0.01,0.02,0.02,0.04,0.04c-0.68,0.66-0.93,2.65-0.7,4.07l-2.65-0.24l-0.13,0.21
	c-0.04,0.07-0.79,1.37-0.53,3.06c-0.59,1.25-0.6,3.48-0.6,3.48l-0.36-0.13c-0.02,0.03-1.22,3.4,2.05,5.4l0.01-0.04l1.13,4.65
	l-22.96,40.57l-5.87-1.75l-5.66-36.4l2.26-5l-1.34-4.83c0,0,8.46-7.77,6.59-20.47c-0.66,3.6-4.69,11.72-8.44,12.06
	c-0.9-1.45-1.08-2.37-1.08-2.37l14.21-17.09c0,0,10.2-14.52,12.35-17.93l3.97,3.41v-7.02l29.55,15.3l-3.88,3.88l3.47,1.07
	L400.01,391.18z M218.44,679.41c5,4.08,8.54,2.13,8.54,2.13s-1.38,5.4-4.38,5.01C219.59,686.15,218.44,679.41,218.44,679.41
	 M201.94,95c-0.05-0.02-0.08-0.09-0.06-0.18C202.01,94.97,202.07,95.05,201.94,95"/>
<polygon class="st4" points="297.42,796.12 148.75,688.51 148.75,428.43 297.42,428.43 "/>
<polygon class="st5" points="297.44,796.12 447.26,688.51 447.26,428.43 297.44,428.43 "/>
<path class="st0" d="M409.91,503.73c0,22.18-17.95,40.17-40.14,40.17s-40.16-17.99-40.16-40.17c0-22.17,17.98-40.14,40.16-40.14
	S409.91,481.56,409.91,503.73"/>
<path class="st1" d="M297.45,687.54c-122.73,0-222.59-99.86-222.59-222.59c0-62.03,25.98-121.26,71.47-163.37v163.37
	c0,83.31,67.8,151.11,151.11,151.11c83.32,0,151.11-67.79,151.11-151.11V301.59c45.5,42.11,71.47,101.33,71.47,163.37
	C520.03,587.68,420.19,687.54,297.45,687.54"/>
<path class="st3" d="M450.98,307.19c19.46,18.92,35.07,40.95,46.48,65.63c13.39,28.97,20.19,59.96,20.19,92.13
	c0,29.72-5.84,58.56-17.31,85.7c-11.1,26.21-26.98,49.77-47.19,69.98c-20.23,20.23-43.77,36.11-69.98,47.19
	c-27.15,11.48-55.98,17.31-85.71,17.31c-29.72,0-58.56-5.83-85.7-17.31c-26.21-11.09-49.77-26.96-69.98-47.19
	c-20.23-20.21-36.09-43.77-47.19-69.98c-11.48-27.14-17.3-55.97-17.3-85.7c0-32.17,6.77-63.16,20.17-92.13
	c11.4-24.69,27.01-46.72,46.49-65.63v157.76c0,41,15.97,79.56,44.96,108.55c28.99,28.99,67.55,44.97,108.55,44.97
	c41,0,79.57-15.98,108.55-44.97c29-28.99,44.98-67.55,44.98-108.55V307.19 M446.16,296.16v168.8c0,82.13-66.6,148.7-148.71,148.7
	c-82.12,0-148.7-66.57-148.7-148.7v-168.8c-46.76,41.23-76.3,101.55-76.3,168.8c0,124.26,100.73,225,225,225
	c124.28,0,225-100.74,225-225C522.45,397.71,492.92,337.39,446.16,296.16"/>
<text transform="matrix(0.9917 0.1286 -0.1286 0.9917 268.7827 660.665)" class="st3 st6 st7"> </text>
<polygon class="st2" points="270.23,430.84 265.95,444.01 252.11,444.01 263.31,452.16 259.02,465.33 270.23,457.2 281.43,465.33 
	277.15,452.16 288.38,444.01 274.51,444.01 "/>
<polygon class="st2" points="172.59,430.84 168.3,444.01 154.46,444.01 165.66,452.16 161.39,465.33 172.59,457.2 183.79,465.33 
	179.51,452.16 190.73,444.01 176.87,444.01 "/>
<polygon class="st2" points="221.42,466.17 217.13,479.34 203.28,479.34 214.48,487.49 210.21,500.66 221.42,492.53 232.61,500.66 
	228.33,487.49 239.56,479.34 225.69,479.34 "/>
<polygon class="st2" points="270.23,501.52 265.95,514.68 252.11,514.68 263.31,522.82 259.02,536 270.23,527.86 281.43,536 
	277.15,522.82 288.38,514.68 274.51,514.68 "/>
<polygon class="st2" points="172.59,501.52 168.3,514.68 154.46,514.68 165.66,522.82 161.39,536 172.59,527.86 183.79,536 
	179.51,522.82 190.73,514.68 176.87,514.68 "/>
<polygon class="st2" points="221.42,536.84 217.13,550.01 203.28,550.01 214.48,558.16 210.21,571.32 221.42,563.19 232.61,571.32 
	228.33,558.16 239.56,550.01 225.69,550.01 "/>
<polygon class="st2" points="270.23,572.17 265.95,585.35 252.11,585.35 263.31,593.48 259.02,606.66 270.23,598.52 281.43,606.66 
	277.15,593.48 288.38,585.35 274.51,585.35 "/>
<polygon class="st2" points="172.59,650.44 168.3,663.61 154.46,663.61 165.66,671.75 161.39,684.91 172.59,676.79 183.79,684.91 
	179.51,671.75 190.73,663.61 176.87,663.61 "/>
<polygon class="st2" points="221.42,685.77 217.13,698.94 203.28,698.94 214.48,707.08 210.21,720.25 221.42,712.12 232.61,720.25 
	228.33,707.08 239.56,698.94 225.69,698.94 "/>
<polygon class="st2" points="270.23,721.1 265.95,734.27 252.11,734.27 263.31,742.42 259.02,755.58 270.23,747.46 281.43,755.58 
	277.15,742.42 288.38,734.27 274.51,734.27 "/>
<path class="st3" d="M125.96,468.04l0.49,10.04l-32.46,13.33l-0.46-9.31l6.54-2.37l-0.57-11.9l-6.73-1.7l-0.4-8.24L125.96,468.04z
	 M106.06,477.53l13.68-4.49v-0.13l-14.06-3.45L106.06,477.53z"/>
<path class="st3" d="M127.42,493.3l3.46,12.52l-20.25,10.75l22.83-1.45l3.5,12.46l-31.9,8.88l-2.07-7.51l26.84-7.05l-28.63,0.62
	l-1.98-7.15l25.16-14.03L97.46,509l-1.91-6.88L127.42,493.3z"/>
<path class="st3" d="M139.37,554.81c2.78-1.89,2.88-4.33,1.78-6.4c-2.34-4.41-7.55-3.37-12.89-0.54c-1.78,0.95-9.12,4.9-6.13,10.54
	c2.04,3.86,5.38,2.61,6.59,2.15l4.03,7.57c-9.16,4.82-14.39-3.15-16.2-6.57c-1.36-2.55-3.27-7.32-1.42-12.04
	c1.86-4.68,6.26-7.66,9.29-9.27c4-2.13,8.45-3.42,12.88-2.6c4.83,0.89,7.56,3.88,9.59,7.71c2.26,4.25,2.85,8.09,1.52,11.46
	c-1.39,3.43-3.98,4.88-5.06,5.49L139.37,554.81z"/>
<path class="st3" d="M155.55,561.89l5.24,6.48l-10.04,8.11l6.23,7.73l10.04-8.12l5.25,6.52l-25.72,20.77l-5.25-6.52l10.41-8.39
	l-6.27-7.76l-10.41,8.4l-5.2-6.45L155.55,561.89z"/>
<path class="st3" d="M183.73,593.12l7.72,6.45l-12.18,32.92l-7.16-5.97l2.68-6.42l-9.14-7.63l-5.81,3.8l-6.32-5.29L183.73,593.12z
	 M177.25,614.2l5.95-13.11l-0.09-0.08l-12.07,8.01L177.25,614.2z"/>
<path class="st3" d="M203.32,609.15l11.55,5.93l-5.84,22.18l14.4-17.78l11.53,5.86l-15.07,29.48l-6.94-3.55l13.01-24.53
	l-18.95,21.48l-6.6-3.39l6.73-28l-12.59,25l-6.35-3.26L203.32,609.15z"/>
<path class="st3" d="M256,631.59l11.74,2.01c3.7,0.64,7.48,1.29,9.7,4.41c0.77,1.11,1.77,3.09,1.27,5.98
	c-0.98,5.78-5.99,6.17-7.52,6.32l-0.01,0.09c1.77,0.67,6.82,2.61,5.67,9.29c-0.43,2.53-1.79,5.37-5.33,6.71
	c-2.54,0.96-5.51,0.45-8.14-0.01l-12.96-2.22L256,631.59z M259.35,659.58l4.51,0.77c0.93,0.17,4.18,0.72,4.84-3.07
	c0.67-3.92-2.66-4.49-3.76-4.68l-4.27-0.74L259.35,659.58z M261.62,646.08l3.83,0.65c1.3,0.23,2.13,0.37,2.91,0.09
	c1.03-0.43,1.85-1.5,2.09-2.9c0.18-0.99,0.05-2.22-0.63-3.08c-0.77-0.93-1.65-1.08-2.51-1.22l-4.44-0.76L261.62,646.08z"/>
<path class="st3" d="M295.8,636.22l10.05-0.2l12.4,32.84l-9.33,0.18l-2.17-6.6l-11.92,0.23l-1.89,6.68l-8.25,0.16L295.8,636.22z
	 M304.73,656.39l-4.1-13.8h-0.13l-3.84,13.95L304.73,656.39z"/>
<path class="st3" d="M321.4,635.12l11.1-2.51l15.25,21.82l-5.51-24.02l7.03-1.59l7.29,32.26l-10.85,2.46l-15.67-22.79l5.73,25.04
	l-7.07,1.59L321.4,635.12z"/>
<path class="st3" d="M377.97,627.36c-1.83-2.94-4.44-2.8-6.52-1.87c-5.13,2.35-4.73,8.2-2.44,13.24c3.21,7.05,8.04,8.42,12.59,6.35
	c1.38-0.63,2.68-1.47,3.94-2.4l-2.65-5.84l-5.75,2.62l-2.6-5.71l12.8-5.82l7.32,16.08c-3.47,2.84-7.2,5.28-11.2,7.11
	c-2.94,1.34-7.21,2.68-11.55,1.5c-4.76-1.31-8.51-5.34-10.68-10.14c-1.65-3.62-2.98-9.11-1.41-13.8c1.69-4.85,6.14-7.63,9.4-9.11
	c4.24-1.93,8.18-2.52,11.5-1.01c3,1.4,4.17,3.89,4.88,5.33L377.97,627.36z"/>
<path class="st3" d="M386.96,611.3l6.88-4.78l15.15,21.83l10.97-7.62l3.71,5.35l-17.86,12.38L386.96,611.3z"/>
<path class="st3" d="M414.96,589.68l7.1-7.1l31.68,15.11l-6.6,6.58l-6.15-3.25l-8.43,8.41l3.26,6.13l-5.84,5.82L414.96,589.68z
	 M435.35,598.04l-12.53-7.11l-0.08,0.08l6.89,12.74L435.35,598.04z"/>
<path class="st3" d="M432.8,570.91l6.93-10.49c1.97-2.96,4.9-6.66,8.54-7.95c5.23-1.84,10.44,0.17,14.51,2.87
	c6.13,4.04,9.49,8.78,8.34,15.23c-0.62,3.26-2.61,6.28-3.75,7.99l-6.98,10.56L432.8,570.91z M459.74,578.58l1.95-2.95
	c2.99-4.6,2.74-8.96-3.68-13.21c-8.38-5.53-12.11,0.11-13.48,2.2l-1.83,2.7L459.74,578.58z"/>
<path class="st3" d="M451.42,541.25l8.66-20.6l5.84,2.46l-5.51,13.07l6.33,2.67l5.19-12.31l5.81,2.46l-5.19,12.3l6.52,2.73
	l5.64-13.37l5.89,2.48l-8.8,20.89L451.42,541.25z"/>
<path class="st3" d="M485.5,512.8c1.3,0.25,5.03,1.01,6.12-3.77c0.15-0.69,0.98-4.3-2.68-5.14c-1.51-0.34-2.67-0.01-3.69,1.78
	l-3.68,6.64c-1.03,1.88-3.74,6.71-10.49,5.17c-5.23-1.18-9.27-5.84-7.29-14.51c2.59-11.33,9.53-10.26,12.97-9.52l-1.88,8.16
	c-0.97-0.22-4.44-1.05-5.33,2.8c-0.53,2.33,0.61,4.16,2.53,4.59c2.37,0.54,3.34-1.1,3.97-2.18l2.8-5.07
	c1.98-3.6,4.38-7.87,11.21-6.31c7.18,1.63,9.14,7.92,7.48,15.18c-0.69,3.02-2.33,7.76-6.26,9.66c-3.06,1.54-6.23,0.86-7.64,0.58
	L485.5,512.8z"/>
<path class="st3" d="M468.25,484.98l0.32-8.31l12.9,0.5l0.41-9.93l-12.9-0.52l0.32-8.36l33.05,1.31l-0.34,8.37l-13.36-0.54
	l-0.39,9.97l13.35,0.53l-0.32,8.29L468.25,484.98z"/>
</svg>
